<svg width="1004" height="261" viewBox="0 0 1004 261" fill="none" xmlns="http://www.w3.org/2000/svg">
<path d="M224.906 98.5197L240.075 76.7576C248.077 84.8551 260.412 91.6031 275.582 91.6031C285.417 91.6031 291.418 87.3856 291.418 81.9873C291.418 75.5767 284.25 73.0463 272.414 70.5158C254.078 66.8044 228.406 62.0809 228.406 35.4266C228.406 16.5324 244.243 0.168696 272.748 0.168696C290.584 0.168696 306.087 5.56703 317.923 15.8576L302.253 36.6075C292.918 28.8474 280.749 24.9673 270.914 24.9673C261.412 24.9673 257.745 28.8474 257.745 33.7396C257.745 39.644 264.58 41.6684 276.915 44.0302C295.252 47.9103 320.59 53.3086 320.59 78.782C320.59 101.388 304.087 116.402 274.248 116.402C251.744 116.402 236.074 109.316 224.906 98.5197Z" fill="url(#paint0_linear_1_2052)"/>
<path d="M224.906 98.5197L240.075 76.7576C248.077 84.8551 260.412 91.6031 275.582 91.6031C285.417 91.6031 291.418 87.3856 291.418 81.9873C291.418 75.5767 284.25 73.0463 272.414 70.5158C254.078 66.8044 228.406 62.0809 228.406 35.4266C228.406 16.5324 244.243 0.168696 272.748 0.168696C290.584 0.168696 306.087 5.56703 317.923 15.8576L302.253 36.6075C292.918 28.8474 280.749 24.9673 270.914 24.9673C261.412 24.9673 257.745 28.8474 257.745 33.7396C257.745 39.644 264.58 41.6684 276.915 44.0302C295.252 47.9103 320.59 53.3086 320.59 78.782C320.59 101.388 304.087 116.402 274.248 116.402C251.744 116.402 236.074 109.316 224.906 98.5197Z" fill="white" fill-opacity="0.15"/>
<path d="M387.676 116.402C354.337 116.402 328.332 92.7839 328.332 58.2008C328.332 23.449 354.337 0 387.676 0C415.348 0 429.684 15.3515 437.018 30.197L412.347 42.0058C408.68 33.0648 399.178 25.6421 387.676 25.6421C370.34 25.6421 357.504 39.8127 357.504 58.2008C357.504 76.5889 370.34 90.7596 387.676 90.7596C399.178 90.7596 408.68 83.3368 412.347 74.3959L437.018 86.2047C429.85 100.713 415.348 116.402 387.676 116.402Z" fill="url(#paint1_linear_1_2052)"/>
<path d="M387.676 116.402C354.337 116.402 328.332 92.7839 328.332 58.2008C328.332 23.449 354.337 0 387.676 0C415.348 0 429.684 15.3515 437.018 30.197L412.347 42.0058C408.68 33.0648 399.178 25.6421 387.676 25.6421C370.34 25.6421 357.504 39.8127 357.504 58.2008C357.504 76.5889 370.34 90.7596 387.676 90.7596C399.178 90.7596 408.68 83.3368 412.347 74.3959L437.018 86.2047C429.85 100.713 415.348 116.402 387.676 116.402Z" fill="white" fill-opacity="0.15"/>
<path d="M443.75 58.2008C443.75 23.9551 469.255 0 503.261 0C537.267 0 562.605 23.9551 562.605 58.2008C562.605 92.4465 537.267 116.402 503.261 116.402C469.255 116.402 443.75 92.4465 443.75 58.2008ZM533.433 58.2008C533.433 39.8127 521.597 25.6421 503.261 25.6421C484.757 25.6421 472.922 39.8127 472.922 58.2008C472.922 76.4202 484.757 90.7596 503.261 90.7596C521.597 90.7596 533.433 76.4202 533.433 58.2008Z" fill="url(#paint2_linear_1_2052)"/>
<path d="M443.75 58.2008C443.75 23.9551 469.255 0 503.261 0C537.267 0 562.605 23.9551 562.605 58.2008C562.605 92.4465 537.267 116.402 503.261 116.402C469.255 116.402 443.75 92.4465 443.75 58.2008ZM533.433 58.2008C533.433 39.8127 521.597 25.6421 503.261 25.6421C484.757 25.6421 472.922 39.8127 472.922 58.2008C472.922 76.4202 484.757 90.7596 503.261 90.7596C521.597 90.7596 533.433 76.4202 533.433 58.2008Z" fill="white" fill-opacity="0.15"/>
<path d="M571.377 58.2008C571.377 23.9551 596.882 0 630.888 0C664.894 0 690.232 23.9551 690.232 58.2008C690.232 92.4465 664.894 116.402 630.888 116.402C596.882 116.402 571.377 92.4465 571.377 58.2008ZM661.06 58.2008C661.06 39.8127 649.224 25.6421 630.888 25.6421C612.385 25.6421 600.549 39.8127 600.549 58.2008C600.549 76.4202 612.385 90.7596 630.888 90.7596C649.224 90.7596 661.06 76.4202 661.06 58.2008Z" fill="url(#paint3_linear_1_2052)"/>
<path d="M571.377 58.2008C571.377 23.9551 596.882 0 630.888 0C664.894 0 690.232 23.9551 690.232 58.2008C690.232 92.4465 664.894 116.402 630.888 116.402C596.882 116.402 571.377 92.4465 571.377 58.2008ZM661.06 58.2008C661.06 39.8127 649.224 25.6421 630.888 25.6421C612.385 25.6421 600.549 39.8127 600.549 58.2008C600.549 76.4202 612.385 90.7596 630.888 90.7596C649.224 90.7596 661.06 76.4202 661.06 58.2008Z" fill="white" fill-opacity="0.15"/>
<path d="M754.438 114.377H725.766V27.1604H694.593V1.85567H785.443V27.1604H754.438V114.377Z" fill="url(#paint4_linear_1_2052)"/>
<path d="M754.438 114.377H725.766V27.1604H694.593V1.85567H785.443V27.1604H754.438V114.377Z" fill="white" fill-opacity="0.15"/>
<path d="M0.5 243.118L15.6694 221.356C23.6708 229.453 36.0064 236.201 51.1758 236.201C61.0109 236.201 67.012 231.984 67.012 226.586C67.012 220.175 59.844 217.645 48.0086 215.114C29.6719 211.403 4.00063 206.679 4.00063 180.025C4.00063 161.131 19.8368 144.767 48.342 144.767C66.1785 144.767 81.6813 150.165 93.5168 160.456L77.8473 181.206C68.5123 173.446 56.3434 169.566 46.5083 169.566C37.0066 169.566 33.3393 173.446 33.3393 178.338C33.3393 184.242 40.1738 186.267 52.5094 188.629C70.846 192.509 96.1839 197.907 96.1839 223.38C96.1839 245.986 79.681 261 49.8422 261C27.3382 261 11.6687 253.915 0.5 243.118Z" fill="url(#paint5_linear_1_2052)"/>
<path d="M0.5 243.118L15.6694 221.356C23.6708 229.453 36.0064 236.201 51.1758 236.201C61.0109 236.201 67.012 231.984 67.012 226.586C67.012 220.175 59.844 217.645 48.0086 215.114C29.6719 211.403 4.00063 206.679 4.00063 180.025C4.00063 161.131 19.8368 144.767 48.342 144.767C66.1785 144.767 81.6813 150.165 93.5168 160.456L77.8473 181.206C68.5123 173.446 56.3434 169.566 46.5083 169.566C37.0066 169.566 33.3393 173.446 33.3393 178.338C33.3393 184.242 40.1738 186.267 52.5094 188.629C70.846 192.509 96.1839 197.907 96.1839 223.38C96.1839 245.986 79.681 261 49.8422 261C27.3382 261 11.6687 253.915 0.5 243.118Z" fill="white" fill-opacity="0.15"/>
<path d="M163.27 261C129.931 261 103.926 237.382 103.926 202.799C103.926 168.047 129.931 144.598 163.27 144.598C190.942 144.598 205.278 159.95 212.613 174.795L187.941 186.604C184.274 177.663 174.772 170.24 163.27 170.24C145.934 170.24 133.098 184.411 133.098 202.799C133.098 221.187 145.934 235.358 163.27 235.358C174.772 235.358 184.274 227.935 187.941 218.994L212.613 230.803C205.445 245.311 190.942 261 163.27 261Z" fill="url(#paint6_linear_1_2052)"/>
<path d="M163.27 261C129.931 261 103.926 237.382 103.926 202.799C103.926 168.047 129.931 144.598 163.27 144.598C190.942 144.598 205.278 159.95 212.613 174.795L187.941 186.604C184.274 177.663 174.772 170.24 163.27 170.24C145.934 170.24 133.098 184.411 133.098 202.799C133.098 221.187 145.934 235.358 163.27 235.358C174.772 235.358 184.274 227.935 187.941 218.994L212.613 230.803C205.445 245.311 190.942 261 163.27 261Z" fill="white" fill-opacity="0.15"/>
<path d="M253.684 258.976H225.012V146.454H280.689C305.693 146.454 319.362 163.493 319.362 183.905C319.362 204.149 305.693 220.85 280.689 220.85H253.684V258.976ZM290.19 183.736C290.19 175.976 284.523 170.915 276.855 170.915H253.684V196.22H276.855C284.523 196.22 290.19 191.328 290.19 183.736Z" fill="url(#paint7_linear_1_2052)"/>
<path d="M253.684 258.976H225.012V146.454H280.689C305.693 146.454 319.362 163.493 319.362 183.905C319.362 204.149 305.693 220.85 280.689 220.85H253.684V258.976ZM290.19 183.736C290.19 175.976 284.523 170.915 276.855 170.915H253.684V196.22H276.855C284.523 196.22 290.19 191.328 290.19 183.736Z" fill="white" fill-opacity="0.15"/>
<path d="M413.642 258.976H332.128V146.454H413.642V170.915H360.799V189.641H412.475V214.271H360.799V234.514H413.642V258.976Z" fill="url(#paint8_linear_1_2052)"/>
<path d="M413.642 258.976H332.128V146.454H413.642V170.915H360.799V189.641H412.475V214.271H360.799V234.514H413.642V258.976Z" fill="white" fill-opacity="0.15"/>
<path d="M483.966 261C450.627 261 424.622 237.382 424.622 202.799C424.622 168.047 450.627 144.598 483.966 144.598C511.638 144.598 525.974 159.95 533.308 174.795L508.637 186.604C504.97 177.663 495.468 170.24 483.966 170.24C466.63 170.24 453.794 184.411 453.794 202.799C453.794 221.187 466.63 235.358 483.966 235.358C495.468 235.358 504.97 227.935 508.637 218.994L533.308 230.803C526.14 245.311 511.638 261 483.966 261Z" fill="url(#paint9_linear_1_2052)"/>
<path d="M483.966 261C450.627 261 424.622 237.382 424.622 202.799C424.622 168.047 450.627 144.598 483.966 144.598C511.638 144.598 525.974 159.95 533.308 174.795L508.637 186.604C504.97 177.663 495.468 170.24 483.966 170.24C466.63 170.24 453.794 184.411 453.794 202.799C453.794 221.187 466.63 235.358 483.966 235.358C495.468 235.358 504.97 227.935 508.637 218.994L533.308 230.803C526.14 245.311 511.638 261 483.966 261Z" fill="white" fill-opacity="0.15"/>
<path d="M599.217 258.976H570.546V171.759H539.373V146.454H630.223V171.759H599.217V258.976Z" fill="url(#paint10_linear_1_2052)"/>
<path d="M599.217 258.976H570.546V171.759H539.373V146.454H630.223V171.759H599.217V258.976Z" fill="white" fill-opacity="0.15"/>
<path d="M738.72 258.976H705.881L687.211 220.85H672.542V258.976H643.87V146.454H699.547C724.218 146.454 738.22 162.986 738.22 183.905C738.22 203.474 726.385 213.933 716.05 217.645L738.72 258.976ZM709.048 183.568C709.048 175.807 702.714 170.915 695.213 170.915H672.542V196.22H695.213C702.714 196.22 709.048 191.328 709.048 183.568Z" fill="url(#paint11_linear_1_2052)"/>
<path d="M738.72 258.976H705.881L687.211 220.85H672.542V258.976H643.87V146.454H699.547C724.218 146.454 738.22 162.986 738.22 183.905C738.22 203.474 726.385 213.933 716.05 217.645L738.72 258.976ZM709.048 183.568C709.048 175.807 702.714 170.915 695.213 170.915H672.542V196.22H695.213C702.714 196.22 709.048 191.328 709.048 183.568Z" fill="white" fill-opacity="0.15"/>
<path d="M754.079 213.427V146.454H783.251V212.415C783.251 225.742 790.252 235.358 805.755 235.358C821.091 235.358 828.092 225.742 828.092 212.415V146.454H857.264V213.258C857.264 241.262 841.428 261 805.755 261C770.082 261 754.079 241.094 754.079 213.427Z" fill="url(#paint12_linear_1_2052)"/>
<path d="M754.079 213.427V146.454H783.251V212.415C783.251 225.742 790.252 235.358 805.755 235.358C821.091 235.358 828.092 225.742 828.092 212.415V146.454H857.264V213.258C857.264 241.262 841.428 261 805.755 261C770.082 261 754.079 241.094 754.079 213.427Z" fill="white" fill-opacity="0.15"/>
<path d="M1003.5 258.976H974.828V183.062L946.656 258.976H933.987L905.982 183.062V258.976H877.311V146.454H917.151L940.322 210.222L963.66 146.454H1003.5V258.976Z" fill="url(#paint13_linear_1_2052)"/>
<path d="M1003.5 258.976H974.828V183.062L946.656 258.976H933.987L905.982 183.062V258.976H877.311V146.454H917.151L940.322 210.222L963.66 146.454H1003.5V258.976Z" fill="white" fill-opacity="0.15"/>
<defs>
<linearGradient id="paint0_linear_1_2052" x1="505.997" y1="-12.1469" x2="505.997" y2="277.05" gradientUnits="userSpaceOnUse">
<stop stop-color="#CD4DF4"/>
<stop offset="0.489664" stop-color="#895DF4"/>
<stop offset="1" stop-color="#5369F3"/>
</linearGradient>
<linearGradient id="paint1_linear_1_2052" x1="505.997" y1="-12.1469" x2="505.997" y2="277.05" gradientUnits="userSpaceOnUse">
<stop stop-color="#CD4DF4"/>
<stop offset="0.489664" stop-color="#895DF4"/>
<stop offset="1" stop-color="#5369F3"/>
</linearGradient>
<linearGradient id="paint2_linear_1_2052" x1="505.997" y1="-12.1469" x2="505.997" y2="277.05" gradientUnits="userSpaceOnUse">
<stop stop-color="#CD4DF4"/>
<stop offset="0.489664" stop-color="#895DF4"/>
<stop offset="1" stop-color="#5369F3"/>
</linearGradient>
<linearGradient id="paint3_linear_1_2052" x1="505.997" y1="-12.1469" x2="505.997" y2="277.05" gradientUnits="userSpaceOnUse">
<stop stop-color="#CD4DF4"/>
<stop offset="0.489664" stop-color="#895DF4"/>
<stop offset="1" stop-color="#5369F3"/>
</linearGradient>
<linearGradient id="paint4_linear_1_2052" x1="505.997" y1="-12.1469" x2="505.997" y2="277.05" gradientUnits="userSpaceOnUse">
<stop stop-color="#CD4DF4"/>
<stop offset="0.489664" stop-color="#895DF4"/>
<stop offset="1" stop-color="#5369F3"/>
</linearGradient>
<linearGradient id="paint5_linear_1_2052" x1="505.997" y1="-12.1469" x2="505.997" y2="277.05" gradientUnits="userSpaceOnUse">
<stop stop-color="#CD4DF4"/>
<stop offset="0.489664" stop-color="#895DF4"/>
<stop offset="1" stop-color="#5369F3"/>
</linearGradient>
<linearGradient id="paint6_linear_1_2052" x1="505.997" y1="-12.1469" x2="505.997" y2="277.05" gradientUnits="userSpaceOnUse">
<stop stop-color="#CD4DF4"/>
<stop offset="0.489664" stop-color="#895DF4"/>
<stop offset="1" stop-color="#5369F3"/>
</linearGradient>
<linearGradient id="paint7_linear_1_2052" x1="505.997" y1="-12.1469" x2="505.997" y2="277.05" gradientUnits="userSpaceOnUse">
<stop stop-color="#CD4DF4"/>
<stop offset="0.489664" stop-color="#895DF4"/>
<stop offset="1" stop-color="#5369F3"/>
</linearGradient>
<linearGradient id="paint8_linear_1_2052" x1="505.997" y1="-12.1469" x2="505.997" y2="277.05" gradientUnits="userSpaceOnUse">
<stop stop-color="#CD4DF4"/>
<stop offset="0.489664" stop-color="#895DF4"/>
<stop offset="1" stop-color="#5369F3"/>
</linearGradient>
<linearGradient id="paint9_linear_1_2052" x1="505.997" y1="-12.1469" x2="505.997" y2="277.05" gradientUnits="userSpaceOnUse">
<stop stop-color="#CD4DF4"/>
<stop offset="0.489664" stop-color="#895DF4"/>
<stop offset="1" stop-color="#5369F3"/>
</linearGradient>
<linearGradient id="paint10_linear_1_2052" x1="505.997" y1="-12.1469" x2="505.997" y2="277.05" gradientUnits="userSpaceOnUse">
<stop stop-color="#CD4DF4"/>
<stop offset="0.489664" stop-color="#895DF4"/>
<stop offset="1" stop-color="#5369F3"/>
</linearGradient>
<linearGradient id="paint11_linear_1_2052" x1="505.997" y1="-12.1469" x2="505.997" y2="277.05" gradientUnits="userSpaceOnUse">
<stop stop-color="#CD4DF4"/>
<stop offset="0.489664" stop-color="#895DF4"/>
<stop offset="1" stop-color="#5369F3"/>
</linearGradient>
<linearGradient id="paint12_linear_1_2052" x1="505.997" y1="-12.1469" x2="505.997" y2="277.05" gradientUnits="userSpaceOnUse">
<stop stop-color="#CD4DF4"/>
<stop offset="0.489664" stop-color="#895DF4"/>
<stop offset="1" stop-color="#5369F3"/>
</linearGradient>
<linearGradient id="paint13_linear_1_2052" x1="505.997" y1="-12.1469" x2="505.997" y2="277.05" gradientUnits="userSpaceOnUse">
<stop stop-color="#CD4DF4"/>
<stop offset="0.489664" stop-color="#895DF4"/>
<stop offset="1" stop-color="#5369F3"/>
</linearGradient>
</defs>
</svg>
