<svg width="46" height="43" viewBox="0 0 46 43" fill="none" xmlns="http://www.w3.org/2000/svg">
<g id="Group 413">
<g id="Vector">
<path d="M23.8262 7.59128L29.1116 15.0501L27.7005 16.0501C23.9473 12.85 21.8773 11.9389 18.2217 11.4862L23.8262 7.59128Z" fill="white"/>
<path d="M26.3899 7.59146C26.1413 7.76764 25.8782 7.83798 25.6007 7.80247C25.3252 7.75547 25.1041 7.61438 24.9374 7.37919C24.7708 7.144 24.7133 6.89199 24.7651 6.62316C24.8188 6.34285 24.9699 6.1146 25.2186 5.93842C25.4672 5.76224 25.7293 5.69764 26.0048 5.74463C26.2823 5.78015 26.5044 5.9155 26.6711 6.15069C26.8377 6.38587 26.8942 6.64363 26.8405 6.92394C26.7888 7.19277 26.6386 7.41528 26.3899 7.59146ZM27.5568 7.76388L31.5138 13.3479L30.1026 14.3479L26.1457 8.76383L27.5568 7.76388Z" fill="white"/>
<path d="M30.1492 10.0906C29.7492 9.52618 29.5053 8.94699 29.4176 8.35308C29.3365 7.7544 29.4075 7.19938 29.6306 6.68802C29.8537 6.17665 30.2038 5.75193 30.6809 5.41385C31.0438 5.15672 31.447 4.99213 31.8905 4.92008C32.3293 4.84132 32.739 4.86392 33.1196 4.9879L31.2411 2.33698L32.6724 1.32275L37.9578 8.78161L36.5265 9.79584L35.9408 8.96932C35.9614 9.36863 35.8732 9.76418 35.6764 10.156C35.4797 10.5478 35.1729 10.8913 34.7563 11.1865C34.2859 11.5198 33.7702 11.7036 33.209 11.7379C32.6479 11.7721 32.0983 11.6518 31.5603 11.3769C31.0243 11.0906 30.5539 10.6618 30.1492 10.0906ZM34.5581 6.99667C34.3153 6.65396 34.041 6.40927 33.7351 6.2626C33.4246 6.1092 33.1098 6.04962 32.7909 6.08384C32.4672 6.11134 32.1743 6.21794 31.9122 6.40365C31.6501 6.58935 31.4535 6.82461 31.3222 7.10942C31.1909 7.39423 31.1428 7.71094 31.1779 8.05957C31.2149 8.39671 31.3525 8.73327 31.5905 9.06926C31.8286 9.40524 32.1053 9.65329 32.4207 9.81341C32.738 9.96204 33.0551 10.025 33.3721 10.0022C33.6958 9.97474 33.9853 9.87052 34.2407 9.68958C34.5027 9.50387 34.7028 9.26624 34.8408 8.97667C34.974 8.68038 35.0221 8.36366 34.9851 8.02652C34.9433 7.68266 34.801 7.33937 34.5581 6.99667Z" fill="white"/>
<path d="M42.0596 1.49932C42.2025 1.70091 42.3176 1.89187 42.405 2.07219L38.3228 4.96489C38.6421 5.34427 39.007 5.5601 39.4175 5.61239C39.8281 5.66467 40.2148 5.56225 40.5776 5.30512C41.1018 4.93371 41.3152 4.44433 41.2179 3.83698L42.7399 2.75846C42.9596 3.41032 42.9647 4.07286 42.7554 4.74607C42.5413 5.41257 42.1016 5.98152 41.4364 6.45292C40.8988 6.83386 40.3317 7.0591 39.7349 7.12866C39.1402 7.18673 38.5671 7.08309 38.0157 6.81773C37.471 6.54761 36.9963 6.12696 36.5915 5.55578C36.182 4.97789 35.9401 4.38723 35.8658 3.78379C35.7915 3.18035 35.8827 2.61104 36.1393 2.07587C36.396 1.5407 36.7999 1.07788 37.3509 0.687426C37.8817 0.311255 38.4364 0.0897936 39.0149 0.0230404C39.6002 -0.0484743 40.157 0.0464907 40.6855 0.307935C41.2159 0.557898 41.674 0.955027 42.0596 1.49932ZM40.3124 2.1318C40.0486 1.7737 39.7128 1.5776 39.3051 1.54352C38.8926 1.50271 38.5015 1.61325 38.132 1.87514C37.7825 2.12275 37.563 2.43978 37.4735 2.82623C37.3859 3.2012 37.4486 3.59588 37.6615 4.01027L40.3124 2.1318Z" fill="white"/>
<path d="M35.4699 16.0104C35.6127 16.212 35.7278 16.403 35.8152 16.5833L31.733 19.476C32.0523 19.8554 32.4172 20.0712 32.8278 20.1235C33.2383 20.1758 33.625 20.0734 33.9878 19.8162C34.512 19.4448 34.7254 18.9554 34.6281 18.3481L36.1501 17.2696C36.3698 17.9214 36.375 18.584 36.1656 19.2572C35.9515 19.9237 35.5119 20.4926 34.8466 20.964C34.309 21.345 33.7419 21.5702 33.1452 21.6398C32.5504 21.6978 31.9773 21.5942 31.4259 21.3288C30.8812 21.0587 30.4065 20.6381 30.0017 20.0669C29.5922 19.489 29.3503 18.8983 29.276 18.2949C29.2017 17.6915 29.2929 17.1221 29.5496 16.587C29.8062 16.0518 30.2101 15.589 30.7611 15.1985C31.292 14.8224 31.8467 14.6009 32.4252 14.5341C33.0104 14.4626 33.5673 14.5576 34.0957 14.819C34.6261 15.069 35.0842 15.4661 35.4699 16.0104ZM33.7226 16.6429C33.4588 16.2848 33.123 16.0887 32.7153 16.0546C32.3028 16.0138 31.9118 16.1244 31.5422 16.3862C31.1928 16.6339 30.9733 16.9509 30.8837 17.3373C30.7962 17.7123 30.8588 18.107 31.0717 18.5214L33.7226 16.6429Z" fill="white"/>
<path d="M35.8052 15.9242C35.4053 15.3597 35.1614 14.7805 35.0736 14.1866C34.9926 13.5879 35.0603 13.0353 35.2766 12.5287C35.4997 12.0173 35.8498 11.5926 36.3269 11.2545C36.7435 10.9593 37.1659 10.7862 37.5941 10.7351C38.0289 10.6793 38.4309 10.7124 38.8 10.8345L38.2357 10.0382L39.657 9.03109L43.6139 14.6152L42.1927 15.6222L41.6141 14.8058C41.6184 15.1964 41.5212 15.5934 41.3224 15.9967C41.1257 16.3885 40.819 16.732 40.4023 17.0272C39.932 17.3605 39.4162 17.5443 38.855 17.5786C38.3006 17.6081 37.7544 17.4854 37.2164 17.2105C36.6804 16.9241 36.21 16.4954 35.8052 15.9242ZM40.2142 12.8302C39.9714 12.4875 39.697 12.2428 39.3912 12.0961C39.0807 11.9427 38.7659 11.8832 38.447 11.9174C38.1232 11.9449 37.8304 12.0515 37.5683 12.2372C37.3062 12.4229 37.1096 12.6582 36.9783 12.943C36.847 13.2278 36.7989 13.5445 36.834 13.8931C36.871 14.2303 37.0085 14.5668 37.2466 14.9028C37.4847 15.2388 37.7614 15.4868 38.0768 15.647C38.394 15.7956 38.7112 15.8585 39.0282 15.8358C39.3519 15.8083 39.6414 15.7041 39.8967 15.5231C40.1588 15.3374 40.3588 15.0998 40.4968 14.8102C40.6301 14.5139 40.6782 14.1972 40.6412 13.8601C40.5994 13.5162 40.4571 13.1729 40.2142 12.8302Z" fill="white"/>
<path d="M42.6574 8.20706C42.6293 7.78283 42.7002 7.38434 42.8701 7.0116C43.0468 6.6341 43.3232 6.31202 43.6995 6.04536L44.7495 7.52706L44.3765 7.79133C43.933 8.1056 43.6708 8.44784 43.59 8.81804C43.5158 9.18349 43.6621 9.62492 44.0287 10.1423L46.0001 12.9243L44.5889 13.9242L40.632 8.34017L42.0431 7.34022L42.6574 8.20706Z" fill="white"/>
</g>
<path id="G" d="M22.548 21.5896C21.8542 20.3191 20.9003 19.3517 19.6862 18.6875C18.472 18.0233 17.0556 17.6912 15.4367 17.6912C13.6445 17.6912 12.0545 18.0955 10.667 18.9041C9.27938 19.7126 8.19534 20.8677 7.41483 22.3693C6.63432 23.8709 6.24407 25.6036 6.24407 27.5672C6.24407 29.5886 6.63432 31.3501 7.41483 32.8517C8.22425 34.3533 9.3372 35.5084 10.7537 36.317C12.1702 37.1255 13.8179 37.5298 15.6969 37.5298C18.0095 37.5298 19.903 36.9234 21.3773 35.7106C22.8516 34.4688 23.82 32.7507 24.2825 30.556H13.8757V25.9212H30.2664V31.2057C29.8617 33.3138 28.9945 35.263 27.6647 37.0533C26.3349 38.8437 24.6149 40.2876 22.5047 41.3849C20.4233 42.4534 18.0818 42.9876 15.4801 42.9876C12.5604 42.9876 9.91535 42.3379 7.54492 41.0384C5.20339 39.71 3.3533 37.8763 1.99463 35.5373C0.664878 33.1982 0 30.5416 0 27.5672C0 24.5929 0.664878 21.9362 1.99463 19.5971C3.3533 17.2292 5.20339 15.3955 7.54492 14.096C9.91535 12.7677 12.546 12.1035 15.4367 12.1035C18.8478 12.1035 21.8109 12.941 24.3259 14.6158C26.8408 16.2618 28.5753 18.5864 29.5292 21.5896H22.548Z" fill="white"/>
</g>
</svg>
