<svg width="26" height="27" viewBox="0 0 26 27" fill="none" xmlns="http://www.w3.org/2000/svg">
<path id="Vector" d="M13 10.2882C12.3624 10.2882 11.739 10.4773 11.2088 10.8315C10.6787 11.1858 10.2654 11.6893 10.0214 12.2784C9.77739 12.8675 9.71355 13.5158 9.83795 14.1412C9.96235 14.7666 10.2694 15.341 10.7203 15.7919C11.1712 16.2428 11.7456 16.5499 12.371 16.6743C12.9964 16.7987 13.6447 16.7348 14.2338 16.4908C14.8229 16.2468 15.3264 15.8335 15.6807 15.3034C16.0349 14.7732 16.224 14.1499 16.224 13.5122C16.224 13.0888 16.1406 12.6696 15.9786 12.2784C15.8166 11.8873 15.5791 11.5319 15.2797 11.2325C14.9803 10.9331 14.6249 10.6956 14.2338 10.5336C13.8426 10.3716 13.4234 10.2882 13 10.2882ZM25.909 7.10321C25.9022 6.09929 25.7173 5.10455 25.363 4.16521C25.1021 3.47784 24.6983 2.85363 24.1785 2.33375C23.6586 1.81387 23.0344 1.41014 22.347 1.14921C21.4077 0.79491 20.4129 0.610046 19.409 0.603207C17.732 0.512207 17.238 0.512207 13 0.512207C8.762 0.512207 8.268 0.512207 6.591 0.603207C5.58709 0.610046 4.59234 0.79491 3.653 1.14921C2.96564 1.41014 2.34142 1.81387 1.82154 2.33375C1.30166 2.85363 0.897933 3.47784 0.637 4.16521C0.282703 5.10455 0.0978392 6.09929 0.0909999 7.10321C-8.71718e-08 8.78021 0 9.27421 0 13.5122C0 17.7502 -8.71718e-08 18.2442 0.0909999 19.9212C0.104993 20.9287 0.289607 21.9264 0.637 22.8722C0.896776 23.5564 1.30017 24.177 1.82 24.6922C2.33765 25.2152 2.96321 25.6189 3.653 25.8752C4.59234 26.2295 5.58709 26.4144 6.591 26.4212C8.268 26.5122 8.762 26.5122 13 26.5122C17.238 26.5122 17.732 26.5122 19.409 26.4212C20.4129 26.4144 21.4077 26.2295 22.347 25.8752C23.0368 25.6189 23.6623 25.2152 24.18 24.6922C24.6998 24.177 25.1032 23.5564 25.363 22.8722C25.717 21.9283 25.9018 20.9293 25.909 19.9212C26 18.2442 26 17.7502 26 13.5122C26 9.27421 26 8.78021 25.909 7.10321ZM22.607 17.5032C22.5653 18.3054 22.3941 19.0956 22.1 19.8432C21.8476 20.4668 21.4724 21.0333 20.9968 21.509C20.5211 21.9847 19.9546 22.3598 19.331 22.6122C18.5764 22.8899 17.7817 23.0435 16.978 23.0672H9.022C8.21825 23.0435 7.42363 22.8899 6.669 22.6122C6.02433 22.3726 5.44216 21.9904 4.966 21.4942C4.49497 21.0278 4.1312 20.4644 3.9 19.8432C3.62122 19.0894 3.47179 18.2938 3.458 17.4902V9.53421C3.47179 8.73058 3.62122 7.93506 3.9 7.18121C4.13957 6.53654 4.52176 5.95437 5.018 5.47821C5.48643 5.00972 6.04924 4.64633 6.669 4.41221C7.42363 4.13453 8.21825 3.98088 9.022 3.95721H16.978C17.7817 3.98088 18.5764 4.13453 19.331 4.41221C19.9757 4.65177 20.5578 5.03396 21.034 5.53021C21.505 5.99658 21.8688 6.55998 22.1 7.18121C22.3777 7.93584 22.5313 8.73046 22.555 9.53421V13.5122C22.555 16.1902 22.646 16.4632 22.607 17.4902V17.5032ZM20.527 7.83121C20.3722 7.41129 20.1282 7.02994 19.8117 6.71348C19.4953 6.39703 19.1139 6.15299 18.694 5.99821C18.1174 5.79835 17.5101 5.70153 16.9 5.71221H9.1C8.48675 5.7182 7.87939 5.83263 7.306 6.05021C6.89251 6.19796 6.5152 6.43203 6.19916 6.73687C5.88312 7.0417 5.63558 7.41032 5.473 7.81821C5.28421 8.39718 5.19198 9.00328 5.2 9.61221V17.4122C5.21289 18.0248 5.3271 18.631 5.538 19.2062C5.69278 19.6261 5.93682 20.0075 6.25328 20.3239C6.56974 20.6404 6.95108 20.8844 7.371 21.0392C7.92567 21.2432 8.50935 21.3573 9.1 21.3772H16.9C17.5133 21.3712 18.1206 21.2568 18.694 21.0392C19.1139 20.8844 19.4953 20.6404 19.8117 20.3239C20.1282 20.0075 20.3722 19.6261 20.527 19.2062C20.7446 18.6328 20.859 18.0255 20.865 17.4122V9.61221C20.8654 8.99834 20.7507 8.38985 20.527 7.81821V7.83121ZM13 18.4782C12.3485 18.4782 11.7033 18.3497 11.1016 18.0999C10.4998 17.8502 9.95319 17.4842 9.4931 17.0229C9.033 16.5616 8.66843 16.0141 8.42029 15.4116C8.17214 14.8092 8.04529 14.1637 8.047 13.5122C8.047 12.5295 8.33858 11.5688 8.88483 10.7519C9.43108 9.93497 10.2074 9.29847 11.1156 8.92299C12.0238 8.54751 13.0229 8.44993 13.9866 8.6426C14.9503 8.83527 15.8351 9.30953 16.5291 10.0053C17.2231 10.7011 17.695 11.5872 17.8852 12.5514C18.0753 13.5155 17.9751 14.5144 17.5972 15.4216C17.2194 16.3288 16.5809 17.1035 15.7625 17.6476C14.9441 18.1917 13.9827 18.4808 13 18.4782ZM18.2 9.52121C17.9126 9.49079 17.6467 9.35509 17.4534 9.14027C17.2601 8.92544 17.1532 8.64669 17.1532 8.35771C17.1532 8.06873 17.2601 7.78997 17.4534 7.57515C17.6467 7.36032 17.9126 7.22463 18.2 7.19421C18.4874 7.22463 18.7533 7.36032 18.9466 7.57515C19.1399 7.78997 19.2468 8.06873 19.2468 8.35771C19.2468 8.64669 19.1399 8.92544 18.9466 9.14027C18.7533 9.35509 18.4874 9.49079 18.2 9.52121Z" fill="white"/>
</svg>
