<svg width="245" height="83" viewBox="0 0 245 83" fill="none" xmlns="http://www.w3.org/2000/svg">
<path d="M13.9128 28.8411L33.9322 49.958C36.4165 52.6692 38.9526 54.1955 41.5405 54.5368C44.1759 54.8345 46.7778 53.8065 49.3464 51.4529C51.9149 49.0993 53.1657 46.5968 53.0988 43.9455C53.0359 41.203 51.784 38.5 49.3433 35.8363L29.3239 14.7194L43.308 1.90534L63.3274 23.0222C67.5552 27.636 70.1977 32.4774 71.2549 37.5464C72.2685 42.5679 71.8495 47.4582 69.9979 52.2176C68.1503 56.8858 65.1811 61.094 61.0905 64.8424C56.9999 68.5907 52.5965 71.1382 47.8801 72.4848C43.1678 73.7402 38.4022 73.6007 33.5833 72.0661C28.8121 70.4879 24.2907 67.3681 20.0194 62.7067L0 41.5898L13.9128 28.8411Z" fill="black"/>
<path d="M89.2331 21.6266C87.2041 21.0358 85.1492 21.0374 83.0685 21.6315C81.0353 22.182 79.0674 23.3289 77.1648 25.0723C73.645 28.2977 71.9085 31.989 71.9553 36.1463C72.0497 40.26 73.8621 44.2432 77.3925 48.096C81.3588 52.4244 85.4582 54.7495 89.6907 55.0713C93.9272 55.3019 98.1145 53.5213 102.253 49.7294C107.152 45.2401 108.621 39.8248 106.661 33.4834L92.6052 46.3629L83.3868 36.3029L109.5 12.3745L121.922 25.9306C123.269 29.5967 123.94 33.5758 123.935 37.8678C123.978 42.1163 123.079 46.4834 121.24 50.9693C119.356 55.4077 116.346 59.5228 112.208 63.3147C107.166 67.9348 101.714 70.9616 95.8521 72.3952C89.9944 73.7376 84.2301 73.463 78.5593 71.5716C72.8924 69.589 67.7708 66.1006 63.1943 61.1062C58.6614 56.1595 55.6762 50.8008 54.2386 45.0303C52.8051 39.1686 53.034 33.4023 54.9254 27.7315C56.7733 22.0131 60.2182 16.8438 65.2601 12.2238C71.5862 6.42693 78.2131 3.15463 85.1407 2.40686C92.0684 1.6591 98.4506 3.46743 104.287 7.83187L89.2331 21.6266Z" fill="black"/>
<path d="M143.144 10.8691V25.7452C143.144 27.1273 143.457 28.1943 144.082 28.9459C144.731 29.6976 145.705 30.0735 147.004 30.0735C148.303 30.0735 149.277 29.6976 149.926 28.9459C150.6 28.17 150.937 27.1031 150.937 25.7452V10.8691H158.008V25.7452C158.008 28.0973 157.515 30.1098 156.529 31.7829C155.542 33.4318 154.196 34.6806 152.488 35.5292C150.804 36.3537 148.928 36.7659 146.86 36.7659C144.791 36.7659 142.939 36.3537 141.304 35.5292C139.693 34.6806 138.418 33.4318 137.48 31.7829C136.566 30.1341 136.109 28.1215 136.109 25.7452V10.8691H143.144Z" fill="black"/>
<path d="M170.812 36.5113L165.761 27.0546H165.004V36.5113H157.932V10.8691H169.08C171.125 10.8691 172.856 11.2329 174.275 11.9603C175.694 12.6635 176.765 13.6455 177.486 14.9064C178.208 16.1431 178.569 17.5373 178.569 19.0892C178.569 20.835 178.088 22.3748 177.125 23.7084C176.187 25.0178 174.804 25.9513 172.977 26.509L178.713 36.5113H170.812ZM165.004 22.1808H168.503C169.465 22.1808 170.187 21.9504 170.668 21.4897C171.149 21.029 171.389 20.3622 171.389 19.4893C171.389 18.6648 171.137 18.0223 170.632 17.5616C170.151 17.0766 169.441 16.8341 168.503 16.8341H165.004V22.1808Z" fill="black"/>
<path d="M194.05 23.3447C195.542 23.6841 196.72 24.4358 197.586 25.5997C198.476 26.7394 198.921 28.0488 198.921 29.5279C198.921 31.7102 198.175 33.4197 196.684 34.6563C195.193 35.893 193.1 36.5113 190.407 36.5113H177.816V10.8691H190.01C192.607 10.8691 194.64 11.4511 196.107 12.615C197.598 13.7789 198.344 15.4156 198.344 17.5252C198.344 19.0286 197.947 20.2894 197.153 21.3079C196.383 22.302 195.349 22.981 194.05 23.3447ZM184.887 21.0532H188.458C190.238 21.0532 191.128 20.3137 191.128 18.8346C191.128 17.307 190.238 16.5431 188.458 16.5431H184.887V21.0532ZM189 30.7645C190.779 30.7645 191.669 30.0128 191.669 28.5095C191.669 27.7335 191.429 27.1395 190.948 26.7273C190.491 26.315 189.829 26.1089 188.964 26.1089H184.887V30.7645H189Z" fill="black"/>
<path d="M214.142 32.3285H205.122L203.751 36.5113H196.32L205.591 10.8691H213.745L222.981 36.5113H215.513L214.142 32.3285ZM212.374 26.8727L209.632 18.58L206.926 26.8727H212.374Z" fill="black"/>
<path d="M244.875 36.5113H237.804L228.388 22.1808V36.5113H221.317V10.8691H228.388L237.804 25.3815V10.8691H244.875V36.5113Z" fill="black"/>
<path d="M158.204 49.8478C157.676 48.9777 156.945 48.3095 156.013 47.8434C155.112 47.3773 154.04 47.1442 152.797 47.1442C150.497 47.1442 148.679 47.89 147.343 49.3817C146.038 50.8733 145.385 52.8777 145.385 55.3949C145.385 58.2228 146.084 60.3826 147.483 61.8742C148.912 63.3348 150.979 64.0651 153.682 64.0651C156.883 64.0651 159.167 62.6201 160.535 59.73H151.352V53.1574H168.412V62.0141C167.698 63.7544 166.641 65.3858 165.243 66.9086C163.875 68.4313 162.135 69.6899 160.022 70.6843C157.909 71.6477 155.5 72.1294 152.797 72.1294C149.503 72.1294 146.582 71.4301 144.033 70.0317C141.516 68.6022 139.558 66.6289 138.16 64.1117C136.793 61.5635 136.109 58.6579 136.109 55.3949C136.109 52.163 136.793 49.2884 138.16 46.7713C139.558 44.223 141.516 42.2497 144.033 40.8513C146.55 39.4218 149.456 38.707 152.75 38.707C156.883 38.707 160.302 39.7015 163.005 41.6903C165.709 43.6792 167.387 46.3984 168.04 49.8478H158.204Z" fill="black"/>
<path d="M176.516 64.9042H186.724V71.8963H167.379V39.0333H176.516V64.9042Z" fill="black"/>
<path d="M194.285 39.0333V71.8963H185.149V39.0333H194.285Z" fill="black"/>
<path d="M207.832 39.0333C211.282 39.0333 214.296 39.7325 216.875 41.131C219.486 42.4983 221.49 44.425 222.889 46.9111C224.287 49.3972 224.986 52.2407 224.986 55.4415C224.986 58.6113 224.272 61.4392 222.842 63.9253C221.444 66.4114 219.439 68.3692 216.829 69.7987C214.25 71.1971 211.251 71.8963 207.832 71.8963H194.827V39.0333H207.832ZM207.133 63.832C209.806 63.832 211.903 63.1018 213.426 61.6412C214.949 60.1806 215.71 58.114 215.71 55.4415C215.71 52.7379 214.949 50.6558 213.426 49.1952C211.903 47.7036 209.806 46.9577 207.133 46.9577H203.963V63.832H207.133Z" fill="black"/>
<path d="M233.114 46.3517V51.7124H243.602V58.6579H233.114V64.5779H245V71.8963H223.977V39.0333H245V46.3517H233.114Z" fill="black"/>
</svg>
