<svg width="253" height="83" viewBox="0 0 253 83" fill="none" xmlns="http://www.w3.org/2000/svg">
<path d="M13.9127 28.8411L33.932 49.958C36.4164 52.6692 38.9525 54.1955 41.5404 54.5368C44.1758 54.8345 46.7777 53.8065 49.3462 51.4529C51.9148 49.0993 53.1656 46.5968 53.0987 43.9455C53.0358 41.203 51.7839 38.5 49.3431 35.8363L29.3238 14.7194L43.3079 1.90534L63.3273 23.0222C67.5551 27.636 70.1976 32.4774 71.2548 37.5464C72.2684 42.5679 71.8494 47.4582 69.9978 52.2176C68.1501 56.8858 65.181 61.094 61.0904 64.8424C56.9998 68.5907 52.5963 71.1382 47.88 72.4848C43.1677 73.7402 38.4021 73.6007 33.5832 72.0661C28.8119 70.4879 24.2906 67.3681 20.0192 62.7067L-0.00012207 41.5898L13.9127 28.8411Z" fill="#FFED02"/>
<path d="M89.233 21.6266C87.204 21.0358 85.1491 21.0374 83.0684 21.6315C81.0352 22.182 79.0673 23.3289 77.1647 25.0723C73.6449 28.2977 71.9084 31.989 71.9552 36.1463C72.0496 40.26 73.8619 44.2432 77.3924 48.096C81.3586 52.4244 85.458 54.7495 89.6906 55.0713C93.9271 55.3019 98.1144 53.5213 102.253 49.7294C107.152 45.2401 108.621 39.8248 106.661 33.4834L92.605 46.3629L83.3867 36.3029L109.5 12.3745L121.922 25.9306C123.269 29.5967 123.94 33.5758 123.935 37.8678C123.978 42.1163 123.079 46.4834 121.24 50.9693C119.356 55.4077 116.346 59.5228 112.207 63.3147C107.165 67.9348 101.714 70.9616 95.852 72.3952C89.9943 73.7376 84.23 73.463 78.5592 71.5716C72.8923 69.589 67.7706 66.1006 63.1942 61.1062C58.6613 56.1595 55.6761 50.8008 54.2385 45.0303C52.805 39.1686 53.0339 33.4023 54.9253 27.7315C56.7732 22.0131 60.218 16.8438 65.2599 12.2238C71.5861 6.42693 78.213 3.15463 85.1406 2.40686C92.0683 1.6591 98.4505 3.46743 104.287 7.83187L89.233 21.6266Z" fill="#FFED02"/>
<path d="M151.144 10.8691V25.7452C151.144 27.1273 151.457 28.1943 152.082 28.9459C152.731 29.6976 153.705 30.0735 155.004 30.0735C156.303 30.0735 157.277 29.6976 157.926 28.9459C158.6 28.17 158.937 27.1031 158.937 25.7452V10.8691H166.008V25.7452C166.008 28.0973 165.515 30.1098 164.529 31.7829C163.542 33.4318 162.196 34.6806 160.488 35.5292C158.804 36.3537 156.928 36.7659 154.86 36.7659C152.791 36.7659 150.939 36.3537 149.304 35.5292C147.693 34.6806 146.418 33.4318 145.48 31.7829C144.566 30.1341 144.109 28.1215 144.109 25.7452V10.8691H151.144Z" fill="#FFED02"/>
<path d="M178.812 36.5113L173.761 27.0546H173.004V36.5113H165.932V10.8691H177.08C179.125 10.8691 180.856 11.2329 182.275 11.9603C183.694 12.6635 184.765 13.6455 185.486 14.9064C186.208 16.1431 186.569 17.5373 186.569 19.0892C186.569 20.835 186.087 22.3748 185.125 23.7084C184.187 25.0178 182.804 25.9513 180.977 26.509L186.713 36.5113H178.812ZM173.004 22.1808H176.503C177.465 22.1808 178.187 21.9504 178.668 21.4897C179.149 21.029 179.389 20.3622 179.389 19.4893C179.389 18.6648 179.137 18.0223 178.632 17.5616C178.151 17.0766 177.441 16.8341 176.503 16.8341H173.004V22.1808Z" fill="#FFED02"/>
<path d="M202.05 23.3447C203.542 23.6841 204.72 24.4358 205.586 25.5997C206.476 26.7394 206.921 28.0488 206.921 29.5279C206.921 31.7102 206.175 33.4197 204.684 34.6563C203.193 35.893 201.1 36.5113 198.407 36.5113H185.816V10.8691H198.01C200.607 10.8691 202.64 11.4511 204.107 12.615C205.598 13.7789 206.344 15.4156 206.344 17.5252C206.344 19.0286 205.947 20.2894 205.153 21.3079C204.383 22.302 203.349 22.981 202.05 23.3447ZM192.887 21.0532H196.458C198.238 21.0532 199.128 20.3137 199.128 18.8346C199.128 17.307 198.238 16.5431 196.458 16.5431H192.887V21.0532ZM197 30.7645C198.779 30.7645 199.669 30.0128 199.669 28.5095C199.669 27.7335 199.429 27.1395 198.948 26.7273C198.491 26.315 197.829 26.1089 196.964 26.1089H192.887V30.7645H197Z" fill="#FFED02"/>
<path d="M222.142 32.3285H213.122L211.751 36.5113H204.32L213.591 10.8691H221.745L230.981 36.5113H223.513L222.142 32.3285ZM220.374 26.8727L217.632 18.58L214.926 26.8727H220.374Z" fill="#FFED02"/>
<path d="M252.875 36.5113H245.804L236.388 22.1808V36.5113H229.317V10.8691H236.388L245.804 25.3815V10.8691H252.875V36.5113Z" fill="#FFED02"/>
<path d="M166.204 49.8478C165.676 48.9777 164.945 48.3095 164.013 47.8434C163.112 47.3773 162.04 47.1442 160.797 47.1442C158.497 47.1442 156.679 47.89 155.343 49.3817C154.038 50.8733 153.385 52.8777 153.385 55.3949C153.385 58.2228 154.084 60.3826 155.483 61.8742C156.912 63.3348 158.979 64.0651 161.682 64.0651C164.883 64.0651 167.167 62.6201 168.535 59.73H159.352V53.1574H176.412V62.0141C175.698 63.7544 174.641 65.3858 173.243 66.9086C171.875 68.4313 170.135 69.6899 168.022 70.6843C165.909 71.6477 163.5 72.1294 160.797 72.1294C157.503 72.1294 154.582 71.4301 152.033 70.0317C149.516 68.6022 147.558 66.6289 146.16 64.1117C144.793 61.5635 144.109 58.6579 144.109 55.3949C144.109 52.163 144.793 49.2884 146.16 46.7713C147.558 44.223 149.516 42.2497 152.033 40.8513C154.55 39.4218 157.456 38.707 160.75 38.707C164.883 38.707 168.302 39.7015 171.005 41.6903C173.709 43.6792 175.387 46.3984 176.04 49.8478H166.204Z" fill="#FFED02"/>
<path d="M184.516 64.9042H194.724V71.8963H175.379V39.0333H184.516V64.9042Z" fill="#FFED02"/>
<path d="M202.285 39.0333V71.8963H193.149V39.0333H202.285Z" fill="#FFED02"/>
<path d="M215.832 39.0333C219.282 39.0333 222.296 39.7325 224.875 41.131C227.486 42.4983 229.49 44.425 230.889 46.9111C232.287 49.3972 232.986 52.2407 232.986 55.4415C232.986 58.6113 232.272 61.4392 230.842 63.9253C229.444 66.4114 227.439 68.3692 224.829 69.7987C222.25 71.1971 219.251 71.8963 215.832 71.8963H202.827V39.0333H215.832ZM215.133 63.832C217.806 63.832 219.903 63.1018 221.426 61.6412C222.949 60.1806 223.71 58.114 223.71 55.4415C223.71 52.7379 222.949 50.6558 221.426 49.1952C219.903 47.7036 217.806 46.9577 215.133 46.9577H211.963V63.832H215.133Z" fill="#FFED02"/>
<path d="M241.114 46.3517V51.7124H251.602V58.6579H241.114V64.5779H253V71.8963H231.977V39.0333H253V46.3517H241.114Z" fill="#FFED02"/>
</svg>
