<svg width="105" height="53" viewBox="0 0 105 53" fill="none" xmlns="http://www.w3.org/2000/svg">
<g id="Group 389">
<g id="Vector 351">
<path d="M80.7522 3.93689C80.6318 3.33639 80.348 3.18219 80.1835 3.18577L79.9796 2.76732C80.0912 2.35528 79.9045 2.15208 79.7972 2.10198L79.486 1.44749C79.4431 1.16421 79.2106 1.04328 79.0997 1.01822C78.9531 0.978875 78.6083 0.977444 78.4023 1.28648C78.1962 1.59551 78.4023 1.92315 78.531 2.04833L78.4237 2.10198V2.19856H78.2842L78.1984 2.14491L78.1769 1.99468C78.134 1.88738 77.4795 1.5225 77.3722 1.50104C77.2649 1.47958 77.1146 1.51177 77.0932 1.69418C77.076 1.84012 77.3221 1.89091 77.4473 1.89806C77.6962 1.95815 77.8872 2.10909 77.9516 2.17705L77.8765 2.54188L78.016 2.74576H78.1018L78.1555 2.7243H78.3701L78.4988 2.88525H78.574L78.5632 3.26081C78.4087 3.22648 78.3343 3.28227 78.3164 3.31447C78.2699 3.39673 78.2456 3.5677 78.5203 3.59345C78.795 3.61921 78.8064 3.64711 78.7778 3.65784C78.6319 4.06988 78.574 4.70226 78.574 4.96694C77.8014 6.12582 78.6669 6.98782 79.1963 7.27396L76.0523 23.4982L75.9128 23.509L75.8377 23.7129L75.6231 23.6807C75.5544 23.7493 75.5373 23.931 75.5373 24.0133L75.7411 24.0562V24.1099H75.7841L75.709 24.2708H75.5158C75.4128 24.3395 75.4157 24.5284 75.43 24.6142H75.6446V24.7322L75.5909 25.0434C75.3162 24.9747 75.1402 25.072 75.0866 25.1293L75.0007 25.3117L74.9793 25.1829L74.7969 25.1293C74.711 25.0091 74.5393 25.0005 74.4642 25.0112C74.3998 25.0327 74.2325 25.0928 74.0779 25.1614C73.8848 25.2473 73.8419 25.3439 73.8419 25.3975C73.7217 25.8868 74.2067 25.9018 74.4642 25.8482L74.8291 25.9126L74.9042 25.8482C74.9256 25.7981 74.96 25.7323 74.9256 25.8696C74.8913 26.007 74.9614 26.1415 75.0007 26.1916L75.3548 26.2667C75.2862 26.6272 75.3477 26.8175 75.387 26.8676C75.3978 26.8962 75.4064 26.947 75.3548 26.9212C75.3033 26.8955 75.0973 26.9105 75.0007 26.9212C74.9113 27.3647 74.7325 28.2668 74.7325 28.3269C74.7325 28.387 74.8613 28.4378 74.9256 28.4557L74.1531 28.3269C72.8482 28.7304 72.4147 28.9671 72.3611 29.0351C72.2252 29.2139 71.9469 29.5823 71.9211 29.6253C71.8889 29.6789 71.8997 29.7433 71.9533 29.7433C72.331 29.5459 73.3268 29.4965 73.7775 29.4965C73.4427 29.6167 72.9656 29.9043 72.7688 30.033C71.6615 30.7455 71.1557 31.9108 71.0412 32.4044C70.8588 32.9946 70.7494 34.5205 71.7709 35.9025C72.7924 37.2846 74.4857 37.5157 75.2046 37.4584C75.8377 37.4405 77.3571 37.0356 78.3701 35.5592C79.383 34.0827 79.0425 32.3901 78.7456 31.7284C78.3765 30.767 77.4973 30.0688 77.1039 29.8399C77.2069 29.8055 77.5045 29.6467 77.6404 29.5716L81.8682 32.4259L81.8789 32.5117L81.9218 32.6298C81.8446 32.707 81.861 32.7693 81.8789 32.7907L82.0077 32.9195L83.5314 34.0462H86.8792L86.9007 34.0676H86.9865L87.008 34.0462H89.1863L89.2292 34.0891H89.2828L89.3257 34.0462H91.4933L91.5147 34.0891H91.6006L91.622 34.0462H93.4891V34.7758C93.4891 34.8531 93.5607 34.8796 93.5964 34.8831H93.8218L93.854 34.9153H93.9827C94.0686 34.9153 94.1186 34.7365 94.1329 34.6471H94.1973V34.7115H94.2188V34.7329H94.2402V34.7544H94.4763V34.69H94.5192V34.6471H94.5407L94.5943 34.7007L94.6695 34.6363L94.7124 34.7007L94.7768 34.6363L94.8197 34.7007L94.8733 34.6256L94.9484 34.7115L95.0128 34.6256L95.0558 34.7007L95.0987 34.6256H95.1201L95.1631 34.7007L95.206 34.6256L95.2596 34.7007L95.3133 34.8188H95.7532V34.7544H95.8927C96.0751 35.3553 96.6653 36.3532 97.7813 37.0185C98.8972 37.6838 100.432 37.6945 101.805 36.9648C103.179 36.2352 103.629 34.7329 103.726 34.25C103.822 33.7672 104.016 32.1362 102.642 30.6768C101.543 29.5094 100.045 29.3105 99.4337 29.357L99.6054 29.1746C99.6233 29.1746 99.6998 29.1703 99.8629 29.1531C100.026 29.136 100.231 28.8813 100.314 28.7561C100.357 28.6789 100.568 28.4306 100.668 28.3162C100.814 27.99 100.607 27.7224 100.485 27.6294L100.088 27.3397C99.9681 27.2882 99.2227 27.3826 98.865 27.4363C98.5732 27.5994 98.5217 27.8977 98.5324 28.0264L95.2596 30.9988L91.7508 30.9344H91.0641V30.8915H90.7529V30.9344H87.7591V30.8915H87.4372V30.9344H85.8062L85.7633 30.9451L83.2309 30.9666L82.909 30.9988L78.2091 27.8226L77.6082 27.4256L77.3936 27.2217L76.7069 27.1573L76.8142 26.5349C76.8535 26.5314 76.9494 26.5199 77.018 26.5027C77.0867 26.4856 77.0967 26.3382 77.0932 26.2667L77.2648 26.1916C77.2648 26.1773 77.2842 26.0585 77.3614 25.698C77.4387 25.3374 77.1647 25.1328 77.018 25.0756C77.018 25.047 77.0223 24.9855 77.0395 24.9683C77.061 24.9468 77.2648 25.022 77.34 25.0112C77.4151 25.0005 77.4151 24.6357 77.4151 24.582C77.4151 24.5391 77.2219 24.5355 77.1253 24.5391L77.1468 24.3889C77.2291 24.4067 77.4065 24.4404 77.458 24.4318C77.5095 24.4232 77.5295 24.1063 77.5331 23.9489L77.2648 23.9275V23.745L77.1468 23.7236L80.0762 8.73329V8.46503C80.6513 8.16458 80.5662 7.86056 80.4518 7.7461C80.778 7.583 80.5304 7.32046 80.3659 7.20958L80.4947 6.61941L80.6127 6.53357L80.8166 5.60003L80.8488 5.51419L80.9453 5.12789C81.1943 5.0163 81.1778 4.74518 81.1385 4.62357L81.1707 4.59138L81.2565 4.23728L81.1707 4.04413H81.0741V3.99048L80.8166 3.93689V3.99048H80.7522C80.7629 3.99048 80.7629 3.99048 80.7522 3.93689Z" fill="#FF0000"/>
<path d="M79.3983 4.59138L79.1916 4.82474M80.1835 3.18577C80.348 3.18219 80.6318 3.33639 80.7522 3.93689C80.7629 3.99048 80.7629 3.99048 80.7522 3.99048H80.8166V3.93689L81.0741 3.99048V4.04413H81.1707L81.2565 4.23728L81.1707 4.59138L81.1385 4.62357C81.1778 4.74518 81.1943 5.0163 80.9453 5.12789L80.8488 5.51419L80.8166 5.60003L80.6127 6.53357L80.4947 6.61941L80.3659 7.20958C80.5304 7.32046 80.778 7.583 80.4518 7.7461C80.5662 7.86056 80.6513 8.16458 80.0762 8.46503V8.73329L77.1468 23.7236L77.2648 23.745V23.9275L77.5331 23.9489C77.5295 24.1063 77.5095 24.4232 77.458 24.4318C77.4065 24.4404 77.2291 24.4067 77.1468 24.3889L77.1253 24.5391C77.2219 24.5355 77.4151 24.5391 77.4151 24.582C77.4151 24.6357 77.4151 25.0005 77.34 25.0112C77.2648 25.022 77.061 24.9468 77.0395 24.9683C77.0223 24.9855 77.018 25.047 77.018 25.0756C77.1647 25.1328 77.4387 25.3374 77.3614 25.698C77.2842 26.0585 77.2648 26.1773 77.2648 26.1916L77.0932 26.2667C77.0967 26.3382 77.0867 26.4856 77.018 26.5027C76.9494 26.5199 76.8535 26.5314 76.8142 26.5349L76.7069 27.1573L77.3936 27.2217L77.6082 27.4256L78.2091 27.8226L82.909 30.9988L83.2309 30.9666L85.7633 30.9451L85.8062 30.9344H87.4372V30.8915H87.7591V30.9344H90.7529V30.8915H91.0641V30.9344H91.7508L95.2596 30.9988L98.5324 28.0264C98.5217 27.8977 98.5732 27.5994 98.865 27.4363C99.2227 27.3826 99.9681 27.2882 100.088 27.3397L100.485 27.6294C100.607 27.7224 100.814 27.99 100.668 28.3162C100.568 28.4306 100.357 28.6789 100.314 28.7561C100.231 28.8813 100.026 29.136 99.8629 29.1531C99.6998 29.1703 99.6233 29.1746 99.6054 29.1746L99.4337 29.357C100.045 29.3105 101.543 29.5094 102.642 30.6768C104.016 32.1362 103.822 33.7672 103.726 34.25C103.629 34.7329 103.179 36.2352 101.805 36.9648C100.432 37.6945 98.8972 37.6838 97.7813 37.0185C96.6653 36.3532 96.0751 35.3553 95.8927 34.7544H95.7532V34.8188H95.3133L95.2596 34.7007L95.206 34.6256L95.1631 34.7007L95.1201 34.6256H95.0987L95.0558 34.7007L95.0128 34.6256L94.9484 34.7115L94.8733 34.6256L94.8197 34.7007L94.7768 34.6363L94.7124 34.7007L94.6695 34.6363L94.5943 34.7007L94.5407 34.6471H94.5192V34.69H94.4763V34.7544H94.2402V34.7329H94.2188V34.7115H94.1973V34.6471H94.1329C94.1186 34.7365 94.0686 34.9153 93.9827 34.9153C93.8969 34.9153 93.8611 34.9153 93.854 34.9153L93.8218 34.8831H93.5964C93.5607 34.8796 93.4891 34.8531 93.4891 34.7758C93.4891 34.6986 93.4891 34.2572 93.4891 34.0462H91.622L91.6006 34.0891H91.5147L91.4933 34.0462H89.3257L89.2828 34.0891H89.2292L89.1863 34.0462H87.008L86.9865 34.0676H86.9007L86.8792 34.0462H83.5314L82.0077 32.9195L81.8789 32.7907C81.861 32.7693 81.8446 32.707 81.9218 32.6298L81.8789 32.5117L81.8682 32.4259L77.6404 29.5716C77.5045 29.6467 77.2069 29.8055 77.1039 29.8399C77.4973 30.0688 78.3765 30.767 78.7456 31.7284C79.0425 32.3901 79.383 34.0827 78.3701 35.5592C77.3571 37.0356 75.8377 37.4405 75.2046 37.4584C74.4857 37.5157 72.7924 37.2846 71.7709 35.9025C70.7494 34.5205 70.8588 32.9946 71.0412 32.4044C71.1557 31.9108 71.6615 30.7455 72.7688 30.033C72.9656 29.9043 73.4427 29.6167 73.7775 29.4965C73.3268 29.4965 72.331 29.5459 71.9533 29.7433C71.8997 29.7433 71.8889 29.6789 71.9211 29.6253C71.9469 29.5823 72.2252 29.2139 72.3611 29.0351C72.4147 28.9671 72.8482 28.7304 74.1531 28.3269L74.9256 28.4557C74.8613 28.4378 74.7325 28.387 74.7325 28.3269C74.7325 28.2668 74.9113 27.3647 75.0007 26.9212C75.0973 26.9105 75.3033 26.8955 75.3548 26.9212C75.4064 26.947 75.3978 26.8962 75.387 26.8676C75.3477 26.8175 75.2862 26.6272 75.3548 26.2667L75.0007 26.1916C74.9614 26.1415 74.8913 26.007 74.9256 25.8696C74.96 25.7323 74.9256 25.7981 74.9042 25.8482L74.8291 25.9126L74.4642 25.8482C74.2067 25.9018 73.7217 25.8868 73.8419 25.3975C73.8419 25.3439 73.8848 25.2473 74.0779 25.1614C74.2325 25.0928 74.3998 25.0327 74.4642 25.0112C74.5393 25.0005 74.711 25.0091 74.7969 25.1293L74.9793 25.1829L75.0007 25.3117L75.0866 25.1293C75.1402 25.072 75.3162 24.9747 75.5909 25.0434L75.6446 24.7322V24.6142H75.43C75.4157 24.5284 75.4128 24.3395 75.5158 24.2708H75.709L75.7841 24.1099H75.7411V24.0562L75.5373 24.0133C75.5373 23.931 75.5544 23.7493 75.6231 23.6807L75.8377 23.7129L75.9128 23.509L76.0523 23.4982L79.1963 7.27396C78.6669 6.98782 77.8014 6.12582 78.574 4.96694C78.574 4.70226 78.6319 4.06988 78.7778 3.65784C78.8064 3.64711 78.795 3.61921 78.5203 3.59345C78.2456 3.5677 78.2699 3.39673 78.3164 3.31447C78.3343 3.28227 78.4087 3.22648 78.5632 3.26081L78.574 2.88525H78.4988L78.3701 2.7243H78.1555L78.1018 2.74576H78.016L77.8765 2.54188L77.9516 2.17705C77.8872 2.10909 77.6962 1.95815 77.4473 1.89806C77.3221 1.89091 77.076 1.84012 77.0932 1.69418C77.1146 1.51177 77.2649 1.47958 77.3722 1.50104C77.4795 1.5225 78.134 1.88738 78.1769 1.99468L78.1984 2.14491L78.2842 2.19856H78.4237V2.10198L78.531 2.04833C78.4023 1.92315 78.1962 1.59551 78.4023 1.28648C78.6083 0.977444 78.9531 0.978875 79.0997 1.01822C79.2106 1.04328 79.4431 1.16421 79.486 1.44749L79.7972 2.10198C79.9045 2.15208 80.0912 2.35528 79.9796 2.76732L80.1835 3.18577ZM74.3759 29.303L74.4847 29.2849C74.5149 29.2849 74.5772 29.2631 74.5844 29.1761H74.6297C74.6479 29.1912 74.6823 29.2414 74.6751 29.3212H74.5209V29.3484H74.3759V29.303Z" stroke="#FF0000" stroke-width="2"/>
</g>
<g id="Group 388">
<g id="RIDE PU SE">
<path d="M8.76278 25.1638L5.91463 19.8665H5.48741V25.1638H1.5V10.7998H7.78627C8.93909 10.7998 9.9156 11.0035 10.7158 11.411C11.516 11.8049 12.1195 12.3551 12.5264 13.0614C12.9333 13.7541 13.1367 14.5351 13.1367 15.4044C13.1367 16.3824 12.8655 17.2449 12.323 17.992C11.794 18.7255 11.0142 19.2484 9.98342 19.5608L13.2181 25.1638H8.76278ZM5.48741 17.1363H7.46077C8.00327 17.1363 8.41015 17.0072 8.6814 16.7492C8.95266 16.4911 9.08828 16.1175 9.08828 15.6286C9.08828 15.1667 8.94588 14.8068 8.66106 14.5487C8.38981 14.2771 7.98971 14.1412 7.46077 14.1412H5.48741V17.1363Z" fill="white"/>
<path d="M18.9374 10.7998V25.1638H14.95V10.7998H18.9374Z" fill="white"/>
<path d="M26.8841 10.7998C28.3896 10.7998 29.7051 11.1054 30.8308 11.7167C31.9701 12.3143 32.8449 13.1565 33.4552 14.2431C34.0655 15.3297 34.3707 16.5726 34.3707 17.9716C34.3707 19.3571 34.0588 20.5932 33.4349 21.6798C32.8246 22.7664 31.9498 23.6222 30.8105 24.247C29.6848 24.8582 28.376 25.1638 26.8841 25.1638H21.2082V10.7998H26.8841ZM26.579 21.639C27.7454 21.639 28.6608 21.3198 29.3254 20.6814C29.99 20.043 30.3222 19.1398 30.3222 17.9716C30.3222 16.7899 29.99 15.8798 29.3254 15.2414C28.6608 14.5895 27.7454 14.2635 26.579 14.2635H25.1956V21.639H26.579Z" fill="white"/>
<path d="M40.1555 13.9986V16.3417H44.7329V19.3775H40.1555V21.965H45.3432V25.1638H36.1681V10.7998H45.3432V13.9986H40.1555Z" fill="white"/>
<path d="M59.1545 15.5878C59.1545 16.4571 58.951 17.2517 58.5441 17.9716C58.1508 18.6779 57.5473 19.2484 56.7335 19.6831C55.9333 20.1042 54.95 20.3147 53.7837 20.3147H51.8103V25.1638H47.8229V10.7998H53.7837C54.9365 10.7998 55.913 11.0035 56.7132 11.411C57.5269 11.8185 58.1373 12.3822 58.5441 13.1021C58.951 13.822 59.1545 14.6506 59.1545 15.5878ZM53.3971 17.1363C54.5228 17.1363 55.0857 16.6201 55.0857 15.5878C55.0857 14.5419 54.5228 14.019 53.3971 14.019H51.8103V17.1363H53.3971Z" fill="white"/>
<path d="M64.6624 10.7998V19.133C64.6624 19.9072 64.8387 20.5049 65.1914 20.9259C65.5575 21.347 66.1068 21.5575 66.8392 21.5575C67.5716 21.5575 68.1209 21.347 68.4871 20.9259C68.8668 20.4913 69.0567 19.8936 69.0567 19.133V10.7998H73.0441V19.133C73.0441 20.4505 72.7661 21.5779 72.21 22.5151C71.6539 23.4388 70.8944 24.1383 69.9315 24.6137C68.9821 25.0755 67.9242 25.3065 66.7578 25.3065C65.5915 25.3065 64.5471 25.0755 63.6249 24.6137C62.7162 24.1383 61.9974 23.4388 61.4684 22.5151C60.953 21.5915 60.6953 20.4641 60.6953 19.133V10.7998H64.6624Z" fill="white"/>
<path d="M88.1208 25.3065C86.4526 25.3065 85.0827 24.9125 84.0113 24.1247C82.9398 23.3233 82.3634 22.1824 82.2821 20.7018H86.5339C86.5746 21.2044 86.7238 21.5711 86.9815 21.802C87.2392 22.033 87.5715 22.1484 87.9783 22.1484C88.3445 22.1484 88.6429 22.0601 88.8735 21.8835C89.1176 21.6934 89.2397 21.4353 89.2397 21.1093C89.2397 20.6882 89.043 20.3622 88.6497 20.1313C88.2564 19.9004 87.6189 19.6423 86.7374 19.3571C85.8016 19.0447 85.042 18.7459 84.4588 18.4606C83.8892 18.1618 83.3874 17.7339 82.9534 17.177C82.533 16.6065 82.3227 15.8663 82.3227 14.9562C82.3227 14.0326 82.5533 13.2447 83.0144 12.5928C83.4756 11.9272 84.113 11.4246 84.9268 11.085C85.7405 10.7455 86.6628 10.5757 87.6935 10.5757C89.3617 10.5757 90.6909 10.9696 91.6809 11.7574C92.6846 12.5316 93.2203 13.6251 93.2881 15.0377H88.9549C88.9413 14.603 88.8057 14.2771 88.548 14.0597C88.3038 13.8424 87.9851 13.7337 87.5918 13.7337C87.2934 13.7337 87.0493 13.822 86.8594 13.9986C86.6695 14.1752 86.5746 14.4265 86.5746 14.7525C86.5746 15.0241 86.6763 15.2618 86.8798 15.4656C87.0968 15.6557 87.3612 15.8255 87.6732 15.9749C87.9851 16.1108 88.4463 16.2873 89.0566 16.5047C89.9653 16.8171 90.7112 17.1295 91.2944 17.4419C91.8912 17.7407 92.3998 18.1686 92.8202 18.7255C93.2542 19.2688 93.4712 19.9615 93.4712 20.8037C93.4712 21.6594 93.2542 22.4269 92.8202 23.106C92.3998 23.7852 91.7827 24.3217 90.9689 24.7156C90.1687 25.1095 89.2193 25.3065 88.1208 25.3065Z" fill="white"/>
<path d="M99.3123 13.9986V16.3417H103.89V19.3775H99.3123V21.965H104.5V25.1638H95.3249V10.7998H104.5V13.9986H99.3123Z" fill="white"/>
</g>
<path id="Vector 365" d="M1.5 28.6626H32.5216L35.9161 35.5927C36.6273 37.0445 38.6778 37.0965 39.4615 35.6825L42.1961 30.7488C42.626 29.9732 43.7779 30.0994 44.0296 30.9496L49.3773 49.0104L55.3619 28.6626H65.4029H75.4438" stroke="#FF0000" stroke-width="2" stroke-linecap="round"/>
</g>
</g>
</svg>
