<svg width="125" height="24" viewBox="0 0 125 24" fill="none" xmlns="http://www.w3.org/2000/svg">
<g id="Vector">
<path d="M24.9468 11.8227C24.9468 5.29938 19.5013 0.00512695 12.7917 0.00512695C6.08217 0.00512695 0.636719 5.29938 0.636719 11.8227C0.636719 17.5423 4.81804 22.3048 10.3607 23.4038V15.3679H7.92973V11.8227H10.3607V8.86827C10.3607 6.58749 12.2691 4.73214 14.615 4.73214H17.6537V8.2774H15.2227C14.5542 8.2774 14.0072 8.80919 14.0072 9.45915V11.8227H17.6537V15.3679H14.0072V23.5811C20.1455 22.9902 24.9468 17.956 24.9468 11.8227Z" fill="white"/>
<path d="M47.198 8.86969C46.6018 8.86969 46.019 9.04115 45.5232 9.36238C45.0275 9.68361 44.6412 10.1402 44.413 10.6744C44.1848 11.2086 44.1251 11.7964 44.2415 12.3634C44.3578 12.9305 44.6449 13.4514 45.0664 13.8603C45.488 14.2691 46.0252 14.5476 46.6099 14.6604C47.1946 14.7732 47.8007 14.7153 48.3516 14.494C48.9024 14.2727 49.3732 13.898 49.7044 13.4173C50.0356 12.9365 50.2124 12.3713 50.2124 11.7931C50.2124 11.4092 50.1345 11.0291 49.983 10.6744C49.8315 10.3197 49.6094 9.99741 49.3295 9.72594C49.0496 9.45448 48.7173 9.23914 48.3516 9.09222C47.9858 8.94531 47.5938 8.86969 47.198 8.86969ZM59.2679 5.98164C59.2615 5.07132 59.0887 4.16932 58.7574 3.31755C58.5134 2.69427 58.1359 2.12825 57.6499 1.65684C57.1638 1.18543 56.5801 0.819344 55.9374 0.582738C55.0592 0.261473 54.1291 0.0938444 53.1904 0.0876428C51.6224 0.00512687 51.1605 0.00512695 47.198 0.00512695C43.2354 0.00512695 42.7736 0.00512687 41.2056 0.0876428C40.2669 0.0938444 39.3368 0.261473 38.4585 0.582738C37.8158 0.819344 37.2322 1.18543 36.7461 1.65684C36.26 2.12825 35.8825 2.69427 35.6386 3.31755C35.3073 4.16932 35.1344 5.07132 35.1281 5.98164C35.043 7.50229 35.043 7.95023 35.043 11.7931C35.043 15.636 35.043 16.0839 35.1281 17.6046C35.1411 18.5181 35.3138 19.4229 35.6386 20.2805C35.8815 20.9009 36.2586 21.4636 36.7447 21.9308C37.2287 22.405 37.8136 22.7711 38.4585 23.0035C39.3368 23.3248 40.2669 23.4924 41.2056 23.4986C42.7736 23.5811 43.2354 23.5811 47.198 23.5811C51.1605 23.5811 51.6224 23.5811 53.1904 23.4986C54.1291 23.4924 55.0592 23.3248 55.9374 23.0035C56.5824 22.7711 57.1673 22.405 57.6513 21.9308C58.1373 21.4636 58.5145 20.9009 58.7574 20.2805C59.0884 19.4245 59.2612 18.5187 59.2679 17.6046C59.353 16.0839 59.353 15.636 59.353 11.7931C59.353 7.95023 59.353 7.50229 59.2679 5.98164ZM56.1805 15.412C56.1415 16.1395 55.9815 16.856 55.7065 17.5339C55.4705 18.0993 55.1197 18.613 54.675 19.0443C54.2302 19.4757 53.7005 19.8159 53.1175 20.0447C52.4119 20.2965 51.6689 20.4358 50.9174 20.4573H43.4785C42.727 20.4358 41.9841 20.2965 41.2785 20.0447C40.6757 19.8275 40.1314 19.4809 39.6862 19.0309C39.2458 18.608 38.9056 18.0972 38.6895 17.5339C38.4288 16.8503 38.2891 16.1289 38.2762 15.4002V8.18599C38.2891 7.45729 38.4288 6.73593 38.6895 6.05236C38.9135 5.4678 39.2708 4.9399 39.7348 4.50814C40.1728 4.08333 40.699 3.75382 41.2785 3.54152C41.9841 3.28974 42.727 3.15041 43.4785 3.12894H50.9174C51.6689 3.15041 52.4119 3.28974 53.1175 3.54152C53.7202 3.75875 54.2646 4.10531 54.7098 4.55529C55.1502 4.97818 55.4903 5.48905 55.7065 6.05236C55.9661 6.73664 56.1098 7.45717 56.1319 8.18599V11.7931C56.1319 14.2214 56.217 14.469 56.1805 15.4002V15.412ZM54.2357 6.64176C54.091 6.26099 53.8628 5.9152 53.567 5.62825C53.2711 5.34129 52.9145 5.12001 52.5219 4.97966C51.9828 4.79843 51.415 4.71064 50.8445 4.72032H43.5515C42.9781 4.72576 42.4102 4.82952 41.8741 5.02681C41.4875 5.16079 41.1347 5.37304 40.8392 5.64945C40.5437 5.92587 40.3122 6.26011 40.1602 6.62997C39.9837 7.15497 39.8975 7.70456 39.905 8.25672V15.3295C39.917 15.885 40.0238 16.4346 40.221 16.9562C40.3657 17.337 40.5939 17.6828 40.8898 17.9698C41.1857 18.2567 41.5422 18.478 41.9349 18.6184C42.4535 18.8033 42.9992 18.9068 43.5515 18.9248H50.8445C51.4179 18.9194 51.9858 18.8156 52.5219 18.6184C52.9145 18.478 53.2711 18.2567 53.567 17.9698C53.8628 17.6828 54.091 17.337 54.2357 16.9562C54.4392 16.4363 54.5462 15.8856 54.5518 15.3295V8.25672C54.5521 7.70009 54.4449 7.14832 54.2357 6.62997V6.64176ZM47.198 16.2961C46.5888 16.2961 45.9856 16.1796 45.4229 15.9531C44.8603 15.7267 44.3492 15.3948 43.919 14.9765C43.4888 14.5582 43.148 14.0617 42.9159 13.5154C42.6839 12.9692 42.5653 12.3839 42.5669 11.7931C42.5669 10.902 42.8396 10.0309 43.3503 9.29015C43.861 8.54938 44.5869 7.97223 45.4361 7.63176C46.2852 7.29128 47.2194 7.2028 48.1205 7.37751C49.0215 7.55222 49.8488 7.98226 50.4977 8.61319C51.1466 9.24413 51.5878 10.0476 51.7656 10.9219C51.9434 11.7961 51.8497 12.7019 51.4964 13.5245C51.1431 14.3471 50.5461 15.0496 49.7809 15.543C49.0158 16.0363 48.1168 16.2985 47.198 16.2961ZM52.06 8.1742C51.7913 8.14662 51.5426 8.02357 51.3619 7.82878C51.1812 7.63398 51.0812 7.38121 51.0812 7.11918C51.0812 6.85714 51.1812 6.60437 51.3619 6.40957C51.5426 6.21478 51.7913 6.09173 52.06 6.06415C52.3287 6.09173 52.5773 6.21478 52.7581 6.40957C52.9388 6.60437 53.0388 6.85714 53.0388 7.11918C53.0388 7.38121 52.9388 7.63398 52.7581 7.82878C52.5773 8.02357 52.3287 8.14662 52.06 8.1742Z" fill="white"/>
<path d="M83.9171 10.1676L92.9669 0.00512695H90.8222L82.9644 8.82888L76.6882 0.00512695H69.4492L78.9401 13.3484L69.4492 24.0051H71.594L79.8923 14.6869L86.5203 24.0051H93.7593L83.9165 10.1676H83.9171ZM80.9796 13.4658L72.3667 1.56475H75.6608L90.8232 22.5164H87.5294L80.9796 13.4663V13.4658Z" fill="white"/>
<path d="M120.631 3.6987C119.709 2.67658 119.201 1.36393 119.202 0.00512695H115.035V16.2464C115.003 17.1252 114.621 17.9577 113.969 18.5685C113.318 19.1793 112.448 19.5207 111.542 19.5208C109.627 19.5208 108.036 18.0015 108.036 16.1154C108.036 13.8626 110.274 12.1729 112.58 12.8671V8.72824C107.928 8.12574 103.855 11.6359 103.855 16.1154C103.855 20.4769 107.577 23.5811 111.529 23.5811C115.763 23.5811 119.202 20.2412 119.202 16.1154V7.87688C120.891 9.05548 122.92 9.68784 125 9.68437V5.63717C125 5.63717 122.465 5.75504 120.631 3.6987Z" fill="white"/>
</g>
</svg>
