<svg width="25" height="25" viewBox="0 0 25 25" fill="none" xmlns="http://www.w3.org/2000/svg">
<g id="ph:arrow-up">
<path id="Vector" d="M13.5101 20.0844C13.4375 20.0119 13.3799 19.9257 13.3405 19.8309C13.3012 19.736 13.281 19.6344 13.281 19.5317C13.281 19.429 13.3012 19.3274 13.3405 19.2325C13.3799 19.1377 13.4375 19.0515 13.5101 18.979L19.2084 13.2817L3.90661 13.2817C3.69941 13.2817 3.5007 13.1994 3.35419 13.0529C3.20767 12.9063 3.12536 12.7076 3.12536 12.5004C3.12536 12.2932 3.20767 12.0945 3.35419 11.948C3.5007 11.8015 3.69941 11.7192 3.90661 11.7192L19.2084 11.7192L13.5101 6.02192C13.3635 5.87532 13.2812 5.6765 13.2812 5.46918C13.2812 5.26187 13.3635 5.06304 13.5101 4.91645C13.6567 4.76986 13.8555 4.6875 14.0629 4.6875C14.2702 4.6875 14.469 4.76986 14.6156 4.91645L21.6468 11.9477C21.7195 12.0203 21.7771 12.1064 21.8164 12.2013C21.8557 12.2961 21.876 12.3978 21.876 12.5004C21.876 12.6031 21.8557 12.7048 21.8164 12.7996C21.7771 12.8944 21.7195 12.9806 21.6468 13.0532L14.6156 20.0844C14.543 20.1571 14.4569 20.2147 14.362 20.254C14.2672 20.2933 14.1655 20.3135 14.0629 20.3135C13.9602 20.3135 13.8585 20.2933 13.7637 20.254C13.6688 20.2147 13.5827 20.1571 13.5101 20.0844Z" fill="#F4F4F4"/>
</g>
</svg>
