<svg width="61" height="61" viewBox="0 0 61 61" fill="none" xmlns="http://www.w3.org/2000/svg">
<g id="fluent:building-32-regular">
<path id="Vector" d="M13.3438 7.625H35.7422C37.0575 7.625 38.125 8.6925 38.125 10.0078V26.6875C38.125 27.1931 38.3258 27.6779 38.6833 28.0354C39.0408 28.3929 39.5257 28.5938 40.0312 28.5938H47.1797C48.495 28.5938 49.5625 29.6612 49.5625 30.9766V53.375H43.8438V46.7031C43.8438 45.9448 43.5425 45.2175 43.0063 44.6812C42.47 44.145 41.7427 43.8438 40.9844 43.8438H20.0156C19.2573 43.8438 18.53 44.145 17.9937 44.6812C17.4575 45.2175 17.1562 45.9448 17.1562 46.7031V53.375H11.4375V9.53125C11.4375 9.02568 11.6383 8.54082 11.9958 8.18333C12.3533 7.82584 12.8382 7.625 13.3438 7.625ZM40.0312 53.375H32.4062V47.6562H40.0312V53.375ZM28.5938 53.375H20.9688V47.6562H28.5938V53.375ZM51.4688 57.1875C51.9743 57.1875 52.4592 56.9867 52.8167 56.6292C53.1742 56.2717 53.375 55.7868 53.375 55.2812V30.9766C53.375 30.163 53.2148 29.3574 52.9034 28.6057C52.5921 27.8541 52.1357 27.1711 51.5604 26.5958C50.9851 26.0205 50.3022 25.5642 49.5505 25.2528C48.7989 24.9415 47.9933 24.7812 47.1797 24.7812H41.9375V10.0078C41.9375 9.19423 41.7773 8.38862 41.4659 7.63697C41.1546 6.88532 40.6982 6.20235 40.1229 5.62706C39.5476 5.05178 38.8647 4.59543 38.113 4.28409C37.3614 3.97275 36.5558 3.8125 35.7422 3.8125H13.3438C11.827 3.8125 10.3725 4.41501 9.29998 5.48748C8.22751 6.55996 7.625 8.01454 7.625 9.53125V55.2812C7.625 55.7868 7.82584 56.2717 8.18333 56.6292C8.54082 56.9867 9.02568 57.1875 9.53125 57.1875H51.4688ZM20.0156 19.0625C20.774 19.0625 21.5013 18.7612 22.0375 18.225C22.5737 17.6888 22.875 16.9615 22.875 16.2031C22.875 15.4448 22.5737 14.7175 22.0375 14.1812C21.5013 13.645 20.774 13.3438 20.0156 13.3438C19.2573 13.3438 18.53 13.645 17.9937 14.1812C17.4575 14.7175 17.1562 15.4448 17.1562 16.2031C17.1562 16.9615 17.4575 17.6888 17.9937 18.225C18.53 18.7612 19.2573 19.0625 20.0156 19.0625ZM20.0156 28.5938C20.774 28.5938 21.5013 28.2925 22.0375 27.7563C22.5737 27.22 22.875 26.4927 22.875 25.7344C22.875 24.976 22.5737 24.2487 22.0375 23.7125C21.5013 23.1763 20.774 22.875 20.0156 22.875C19.2573 22.875 18.53 23.1763 17.9937 23.7125C17.4575 24.2487 17.1562 24.976 17.1562 25.7344C17.1562 26.4927 17.4575 27.22 17.9937 27.7563C18.53 28.2925 19.2573 28.5938 20.0156 28.5938ZM22.875 35.2656C22.875 36.024 22.5737 36.7513 22.0375 37.2875C21.5013 37.8237 20.774 38.125 20.0156 38.125C19.2573 38.125 18.53 37.8237 17.9937 37.2875C17.4575 36.7513 17.1562 36.024 17.1562 35.2656C17.1562 34.5073 17.4575 33.78 17.9937 33.2437C18.53 32.7075 19.2573 32.4062 20.0156 32.4062C20.774 32.4062 21.5013 32.7075 22.0375 33.2437C22.5737 33.78 22.875 34.5073 22.875 35.2656ZM29.5469 19.0625C30.3052 19.0625 31.0325 18.7612 31.5688 18.225C32.105 17.6888 32.4062 16.9615 32.4062 16.2031C32.4062 15.4448 32.105 14.7175 31.5688 14.1812C31.0325 13.645 30.3052 13.3438 29.5469 13.3438C28.7885 13.3438 28.0612 13.645 27.525 14.1812C26.9888 14.7175 26.6875 15.4448 26.6875 16.2031C26.6875 16.9615 26.9888 17.6888 27.525 18.225C28.0612 18.7612 28.7885 19.0625 29.5469 19.0625ZM32.4062 25.7344C32.4062 26.4927 32.105 27.22 31.5688 27.7563C31.0325 28.2925 30.3052 28.5938 29.5469 28.5938C28.7885 28.5938 28.0612 28.2925 27.525 27.7563C26.9888 27.22 26.6875 26.4927 26.6875 25.7344C26.6875 24.976 26.9888 24.2487 27.525 23.7125C28.0612 23.1763 28.7885 22.875 29.5469 22.875C30.3052 22.875 31.0325 23.1763 31.5688 23.7125C32.105 24.2487 32.4062 24.976 32.4062 25.7344ZM29.5469 38.125C30.3052 38.125 31.0325 37.8237 31.5688 37.2875C32.105 36.7513 32.4062 36.024 32.4062 35.2656C32.4062 34.5073 32.105 33.78 31.5688 33.2437C31.0325 32.7075 30.3052 32.4062 29.5469 32.4062C28.7885 32.4062 28.0612 32.7075 27.525 33.2437C26.9888 33.78 26.6875 34.5073 26.6875 35.2656C26.6875 36.024 26.9888 36.7513 27.525 37.2875C28.0612 37.8237 28.7885 38.125 29.5469 38.125ZM41.9375 35.2656C41.9375 36.024 41.6362 36.7513 41.1 37.2875C40.5638 37.8237 39.8365 38.125 39.0781 38.125C38.3198 38.125 37.5925 37.8237 37.0562 37.2875C36.52 36.7513 36.2188 36.024 36.2188 35.2656C36.2188 34.5073 36.52 33.78 37.0562 33.2437C37.5925 32.7075 38.3198 32.4062 39.0781 32.4062C39.8365 32.4062 40.5638 32.7075 41.1 33.2437C41.6362 33.78 41.9375 34.5073 41.9375 35.2656Z" fill="#FFE379"/>
</g>
</svg>
