<svg width="61" height="61" viewBox="0 0 61 61" fill="none" xmlns="http://www.w3.org/2000/svg">
<g id="fluent:phone-48-regular">
<path id="Vector" d="M20.651 5.08398C19.2186 5.08398 17.8448 5.65302 16.8319 6.66591C15.819 7.6788 15.25 9.05258 15.25 10.485V50.5163C15.25 51.9487 15.819 53.3225 16.8319 54.3354C17.8448 55.3483 19.2186 55.9173 20.651 55.9173H40.349C41.7814 55.9173 43.1552 55.3483 44.1681 54.3354C45.181 53.3225 45.75 51.9487 45.75 50.5163V10.485C45.75 9.05258 45.181 7.6788 44.1681 6.66591C43.1552 5.65302 41.7814 5.08398 40.349 5.08398H20.651ZM18.4271 10.485C18.4271 9.2574 19.4234 8.26107 20.651 8.26107H40.349C41.5779 8.26107 42.5729 9.2574 42.5729 10.485V50.5163C42.5729 51.1061 42.3386 51.6718 41.9215 52.0889C41.5045 52.5059 40.9388 52.7402 40.349 52.7402H20.651C20.0612 52.7402 19.4955 52.5059 19.0785 52.0889C18.6614 51.6718 18.4271 51.1061 18.4271 50.5163V10.485ZM27.0052 45.1152C26.5839 45.1152 26.1798 45.2826 25.8819 45.5805C25.584 45.8784 25.4167 46.2825 25.4167 46.7038C25.4167 47.1251 25.584 47.5291 25.8819 47.827C26.1798 48.125 26.5839 48.2923 27.0052 48.2923H33.9948C34.4161 48.2923 34.8202 48.125 35.1181 47.827C35.416 47.5291 35.5833 47.1251 35.5833 46.7038C35.5833 46.2825 35.416 45.8784 35.1181 45.5805C34.8202 45.2826 34.4161 45.1152 33.9948 45.1152H27.0052Z" fill="#FFE379"/>
</g>
</svg>
