<svg width="61" height="61" viewBox="0 0 61 61" fill="none" xmlns="http://www.w3.org/2000/svg">
<g id="ph:flower-lotus-thin">
<path id="Vector" d="M57.7524 29.4643C57.5719 29.1461 57.3297 28.8672 57.0401 28.6438C56.7504 28.4204 56.419 28.257 56.0654 28.1633C54.0199 27.6438 51.8958 27.5089 49.801 27.7654C51.1068 22.6519 50.3681 18.6249 49.6223 16.3279C49.4033 15.6412 48.9363 15.0608 48.3125 14.7C47.6886 14.3391 46.9526 14.2237 46.2482 14.3763C43.5786 14.9777 41.0631 16.1275 38.8615 17.7528C37.4079 14.3764 35.1203 11.4247 32.2135 9.17467C31.7191 8.79784 31.1147 8.59375 30.4931 8.59375C29.8715 8.59375 29.267 8.79784 28.7727 9.17467C25.8658 11.4247 23.5782 14.3764 22.1246 17.7528C19.9228 16.1279 17.4074 14.9782 14.7379 14.3763C14.0335 14.2237 13.2976 14.3391 12.6737 14.7C12.0498 15.0608 11.5828 15.6412 11.3639 16.3279C10.618 18.6344 9.87936 22.6614 11.1851 27.7654C9.09273 27.5098 6.97106 27.6447 4.92788 28.1633C4.57427 28.257 4.24293 28.4204 3.95325 28.6438C3.66356 28.8672 3.42137 29.1461 3.24085 29.4643C3.04944 29.7931 2.92555 30.1567 2.87645 30.534C2.82736 30.9112 2.85403 31.2945 2.95491 31.6613C3.72694 34.5206 6.10022 39.9558 13.3249 44.2711C20.5496 48.5864 27.0332 48.6102 30.5002 48.6102C33.9672 48.6102 40.4151 48.6102 47.6732 44.2711C54.9312 39.932 57.2711 34.5183 58.0432 31.6613C58.1433 31.2942 58.1692 30.9107 58.1193 30.5335C58.0694 30.1562 57.9447 29.7927 57.7524 29.4643ZM46.6557 16.2302C46.9002 16.1795 47.1547 16.2221 47.3694 16.3495C47.5841 16.4769 47.7434 16.68 47.8161 16.9188C48.7692 19.8973 49.7224 26.0569 45.2498 33.8368C42.7598 38.1711 39.2666 41.5094 36.1689 43.7112C38.6018 40.5087 40.9846 35.5619 40.9846 28.4016C41.0098 25.4054 40.5363 22.4259 39.5835 19.5852C41.6652 17.9599 44.0801 16.8142 46.6557 16.2302ZM13.1843 16.9188C13.2589 16.6819 13.4191 16.4812 13.6337 16.3561C13.8483 16.231 14.1018 16.1903 14.3448 16.2421C16.9194 16.8226 19.3342 17.9641 21.4169 19.5852C20.4641 22.4259 19.9906 25.4054 20.0158 28.4016C20.0158 35.5619 22.3987 40.511 24.8315 43.7064C21.7339 41.5047 18.2407 38.1663 15.7506 33.832C11.2757 26.045 12.2217 19.8854 13.1843 16.9188ZM14.309 42.6532C7.66096 38.681 5.4926 33.7605 4.80159 31.1799C4.76643 31.0555 4.75696 30.9252 4.77375 30.797C4.79055 30.6688 4.83326 30.5453 4.89928 30.4341C4.95488 30.3336 5.03016 30.2452 5.12063 30.1744C5.21111 30.1036 5.31492 30.0517 5.42589 30.0219C7.50912 29.4991 9.67868 29.4179 11.7951 29.7836C12.4043 31.5199 13.1749 33.1952 14.0969 34.7875C17.2613 40.2918 21.8792 44.2401 25.5988 46.4895C21.6005 46.0397 17.7481 44.7249 14.309 42.6365V42.6532ZM30.5121 46.5467C28.9591 45.4655 27.5857 44.1468 26.4423 42.6389C23.4399 38.7406 21.9221 33.9559 21.9221 28.4016C21.9221 17.8576 27.5193 12.4963 29.926 10.683C30.0914 10.5581 30.293 10.4906 30.5002 10.4906C30.7075 10.4906 30.9091 10.5581 31.0745 10.683C33.4811 12.4963 39.0783 17.8576 39.0783 28.4016C39.0783 33.9559 37.5605 38.7406 34.5701 42.6222C33.4267 44.1301 32.0533 45.4488 30.5002 46.53L30.5121 46.5467ZM56.2108 31.1799C55.515 33.7605 53.3514 38.681 46.7033 42.6532C43.2639 44.7399 39.4115 46.0531 35.4136 46.5014C39.1331 44.2521 43.7534 40.3061 46.9154 34.7994C47.8375 33.2071 48.6081 31.5318 49.2172 29.7955C51.3336 29.4287 53.5034 29.5098 55.5865 30.0338C55.6974 30.0636 55.8013 30.1155 55.8917 30.1863C55.9822 30.2572 56.0575 30.3455 56.1131 30.446C56.2347 30.6646 56.2655 30.9222 56.1989 31.1633L56.2108 31.1799Z" fill="#FFE379"/>
</g>
</svg>
