<svg width="61" height="61" viewBox="0 0 61 61" fill="none" xmlns="http://www.w3.org/2000/svg">
<g id="ph:dress-light">
<path id="Vector" d="M50.7201 50.1558C50.7152 50.1402 50.7088 50.125 50.701 50.1105L39.7544 26.7923L44.7774 18.9052L44.7988 18.8719C45.1096 18.3536 45.2738 17.7606 45.2738 17.1562C45.2738 16.5519 45.1096 15.9589 44.7988 15.4406C44.7821 15.412 44.7631 15.3834 44.744 15.3548L39.5542 7.94191V1.90625C39.5542 1.52707 39.4036 1.16343 39.1355 0.895308C38.8674 0.62719 38.5037 0.476563 38.1245 0.476562C37.7454 0.476563 37.3817 0.62719 37.1136 0.895308C36.8455 1.16343 36.6949 1.52707 36.6949 1.90625V7.89187L35.3367 9.58844C34.7562 10.3137 34.0201 10.8992 33.1828 11.3016C32.3455 11.7039 31.4285 11.9128 30.4995 11.9128C29.5706 11.9128 28.6535 11.7039 27.8162 11.3016C26.979 10.8992 26.2429 10.3137 25.6624 9.58844L24.3042 7.89187V1.90625C24.3042 1.52707 24.1536 1.16343 23.8855 0.895308C23.6174 0.62719 23.2537 0.476563 22.8745 0.476563C22.4954 0.476563 22.1317 0.62719 21.8636 0.895308C21.5955 1.16343 21.4449 1.52707 21.4449 1.90625V7.94191L16.2551 15.3548C16.236 15.3834 16.217 15.412 16.2003 15.4406C15.8895 15.9589 15.7253 16.5519 15.7253 17.1562C15.7253 17.7606 15.8895 18.3536 16.2003 18.8719L16.2217 18.9052L21.2447 26.7923L10.2981 50.1105C10.2903 50.125 10.2839 50.1402 10.279 50.1558C10.0619 50.663 9.9739 51.2162 10.023 51.7657C10.0721 52.3152 10.2568 52.844 10.5604 53.3047C10.8641 53.7653 11.2772 54.1435 11.7629 54.4053C12.2485 54.6671 12.7916 54.8043 13.3433 54.8047H47.6558C48.2077 54.8047 48.751 54.6677 49.237 54.4061C49.723 54.1445 50.1365 53.7664 50.4404 53.3057C50.7443 52.8449 50.9292 52.316 50.9784 51.7663C51.0276 51.2166 50.9397 50.6632 50.7225 50.1558H50.7201ZM18.6474 17.3945C18.6085 17.3263 18.587 17.2494 18.5849 17.1709C18.5828 17.0923 18.6002 17.0144 18.6355 16.9442L22.9508 10.7775L23.4274 11.3755C24.2757 12.4357 25.3515 13.2914 26.5753 13.8795C27.7991 14.4676 29.1394 14.7729 30.4972 14.7729C31.8549 14.7729 33.1953 14.4676 34.419 13.8795C35.6428 13.2914 36.7187 12.4357 37.567 11.3755L38.0435 10.7775L42.3588 16.9394C42.3959 17.0087 42.4154 17.086 42.4154 17.1646C42.4154 17.2432 42.3959 17.3205 42.3588 17.3898L37.3549 25.253H23.6585L18.6474 17.3945ZM48.0513 51.7309C48.0091 51.7978 47.9503 51.8528 47.8805 51.8904C47.8108 51.9279 47.7326 51.9469 47.6534 51.9453H13.3433C13.2658 51.9455 13.1895 51.9267 13.1209 51.8907C13.0523 51.8548 12.9935 51.8026 12.9496 51.7387C12.9057 51.6749 12.8781 51.6013 12.869 51.5244C12.86 51.4474 12.8698 51.3695 12.8977 51.2972L23.7824 28.1172H37.2167L48.099 51.2972C48.1278 51.3677 48.1385 51.4443 48.1302 51.5201C48.1219 51.5958 48.0948 51.6683 48.0513 51.7309Z" fill="#FFE379"/>
</g>
</svg>
