<svg width="63" height="63" viewBox="0 0 63 63" fill="none" xmlns="http://www.w3.org/2000/svg">
<g id="ph:quotes-thin">
<path id="Vector" d="M24.6094 14.7656H9.84375C9.06053 14.7656 8.30939 15.0768 7.75558 15.6306C7.20176 16.1844 6.89062 16.9355 6.89062 17.7188V33.4688C6.89062 34.252 7.20176 35.0031 7.75558 35.5569C8.30939 36.1107 9.06053 36.4219 9.84375 36.4219H25.5938V39.375C25.5938 41.7247 24.6604 43.9781 22.9989 45.6395C21.3374 47.301 19.084 48.2344 16.7344 48.2344C16.4733 48.2344 16.2229 48.3381 16.0383 48.5227C15.8537 48.7073 15.75 48.9577 15.75 49.2188C15.75 49.4798 15.8537 49.7302 16.0383 49.9148C16.2229 50.0994 16.4733 50.2031 16.7344 50.2031C19.6052 50.1999 22.3575 49.058 24.3874 47.028C26.4174 44.9981 27.5592 42.2458 27.5625 39.375V17.7188C27.5625 16.9355 27.2514 16.1844 26.6975 15.6306C26.1437 15.0768 25.3926 14.7656 24.6094 14.7656ZM25.5938 34.4531H9.84375C9.58268 34.4531 9.3323 34.3494 9.14769 34.1648C8.96309 33.9802 8.85938 33.7298 8.85938 33.4688V17.7188C8.85938 17.4577 8.96309 17.2073 9.14769 17.0227C9.3323 16.8381 9.58268 16.7344 9.84375 16.7344H24.6094C24.8704 16.7344 25.1208 16.8381 25.3054 17.0227C25.49 17.2073 25.5938 17.4577 25.5938 17.7188V34.4531ZM53.1562 14.7656H38.3906C37.6074 14.7656 36.8563 15.0768 36.3025 15.6306C35.7486 16.1844 35.4375 16.9355 35.4375 17.7188V33.4688C35.4375 34.252 35.7486 35.0031 36.3025 35.5569C36.8563 36.1107 37.6074 36.4219 38.3906 36.4219H54.1406V39.375C54.1406 41.7247 53.2072 43.9781 51.5458 45.6395C49.8843 47.301 47.6309 48.2344 45.2812 48.2344C45.0202 48.2344 44.7698 48.3381 44.5852 48.5227C44.4006 48.7073 44.2969 48.9577 44.2969 49.2188C44.2969 49.4798 44.4006 49.7302 44.5852 49.9148C44.7698 50.0994 45.0202 50.2031 45.2812 50.2031C48.152 50.1999 50.9043 49.058 52.9343 47.028C54.9643 44.9981 56.1061 42.2458 56.1094 39.375V17.7188C56.1094 16.9355 55.7982 16.1844 55.2444 15.6306C54.6906 15.0768 53.9395 14.7656 53.1562 14.7656ZM54.1406 34.4531H38.3906C38.1296 34.4531 37.8792 34.3494 37.6946 34.1648C37.51 33.9802 37.4062 33.7298 37.4062 33.4688V17.7188C37.4062 17.4577 37.51 17.2073 37.6946 17.0227C37.8792 16.8381 38.1296 16.7344 38.3906 16.7344H53.1562C53.4173 16.7344 53.6677 16.8381 53.8523 17.0227C54.0369 17.2073 54.1406 17.4577 54.1406 17.7188V34.4531Z" fill="#FFE379"/>
</g>
</svg>
