<svg width="85" height="93" viewBox="0 0 85 93" fill="none" xmlns="http://www.w3.org/2000/svg">
<path id="Vector 351" d="M25.419 7.47998C25.1078 5.95058 24.3739 5.55783 23.9485 5.56694L23.4213 4.5012C23.7099 3.45176 23.2271 2.93423 22.9496 2.80665L22.145 1.13971C22.034 0.418222 21.4328 0.110219 21.1461 0.0464033C20.7669 -0.0538038 19.8754 -0.0574476 19.3426 0.729633C18.8099 1.51671 19.3426 2.35116 19.6756 2.67001L19.3981 2.80665V3.05261H19.0374L18.8155 2.91597L18.76 2.53336C18.649 2.26007 16.9564 1.33075 16.679 1.2761C16.4015 1.22144 16.0131 1.30343 15.9576 1.76802C15.9132 2.1397 16.5495 2.26906 16.8732 2.28728C17.5169 2.44032 18.0108 2.82475 18.1773 2.99783L17.9831 3.92703L18.3438 4.44628H18.5657L18.7045 4.39162H19.2594L19.5923 4.80156H19.7866L19.7588 5.75808C19.3593 5.67063 19.1669 5.81274 19.1207 5.89473C19.0004 6.10425 18.9375 6.5397 19.6478 6.60529C20.3581 6.67088 20.3877 6.74193 20.3137 6.76926C19.9364 7.8187 19.7866 9.4293 19.7866 10.1034C17.7888 13.055 20.027 15.2504 21.3959 15.9792L13.2662 57.3009L12.9055 57.3283L12.7113 57.8475L12.1563 57.7655C11.9788 57.9404 11.9344 58.4032 11.9344 58.6127L12.4616 58.7221V58.8587H12.5725L12.3783 59.2686H11.8789C11.6125 59.4435 11.6199 59.9245 11.6569 60.1432H12.2118V60.4438L12.0731 61.2363C11.3628 61.0614 10.9078 61.3092 10.769 61.455L10.5471 61.9196L10.4916 61.5916L10.0199 61.455C9.79791 61.1489 9.35397 61.127 9.15974 61.1543C8.99327 61.209 8.56042 61.362 8.16088 61.537C7.66144 61.7556 7.55046 62.0016 7.55046 62.1382C7.2397 63.3844 8.49383 63.4227 9.15974 63.286L10.1031 63.45L10.2973 63.286C10.3528 63.1585 10.4416 62.9909 10.3528 63.3407C10.264 63.6905 10.4453 64.033 10.5471 64.1606L11.4627 64.3519C11.2851 65.2701 11.4442 65.7548 11.5459 65.8823C11.5737 65.9552 11.5959 66.0845 11.4627 66.0189C11.3295 65.9534 10.7968 65.9916 10.5471 66.0189C10.3158 67.1486 9.8534 69.446 9.8534 69.5991C9.8534 69.7521 10.1864 69.8815 10.3528 69.927L8.3551 69.5991C4.98115 70.6266 3.8602 71.2297 3.72147 71.4028C3.37002 71.8583 2.65046 72.7966 2.58387 72.9059C2.50063 73.0425 2.52838 73.2065 2.66711 73.2065C3.64378 72.7037 6.21864 72.5779 7.38398 72.5779C6.5183 72.884 5.28451 73.6165 4.77583 73.9444C1.91241 75.7591 0.604619 78.727 0.30865 79.9842C-0.163037 81.4873 -0.446049 85.3735 2.1954 88.8935C4.83684 92.4135 9.21521 93.002 11.0742 92.8562C12.7112 92.8107 16.6401 91.7794 19.2594 88.0189C21.8786 84.2584 20.9981 79.9477 20.2305 78.2624C19.276 75.8137 17.0027 74.0355 15.9853 73.4525C16.2517 73.365 17.0212 72.9606 17.3726 72.7693L28.3047 80.0388L28.3324 80.2575L28.4434 80.5581C28.2436 80.7548 28.2862 80.9133 28.3324 80.968L28.6654 81.296L32.6053 84.1655H41.2622L41.3177 84.2202H41.5396L41.5951 84.1655H47.2276L47.3386 84.2748H47.4773L47.5883 84.1655H53.1931L53.2486 84.2748H53.4705L53.526 84.1655H58.3539V86.0239C58.3539 86.2207 58.5389 86.2881 58.6313 86.2972H59.214L59.2973 86.3792H59.6302C59.8522 86.3792 59.9817 85.9237 60.0187 85.696H60.1851V85.8599H60.2406V85.9146H60.2961V85.9693H60.9065V85.8053H61.0175V85.696H61.073L61.2118 85.8326L61.406 85.6686L61.517 85.8326L61.6834 85.6686L61.7944 85.8326L61.9332 85.6413L62.1274 85.8599L62.2939 85.6413L62.4048 85.8326L62.5158 85.6413H62.5713L62.6823 85.8326L62.7933 85.6413L62.932 85.8326L63.0708 86.1332H64.2084V85.9693H64.5691C65.0407 87.4997 66.5668 90.0413 69.4524 91.7357C72.338 93.4301 76.3057 93.4575 79.8573 91.5991C83.4088 89.7407 84.5741 85.9146 84.8238 84.6848C85.0736 83.455 85.573 79.3009 82.0215 75.5842C79.1803 72.6107 75.3069 72.1042 73.7253 72.2227L74.1693 71.7581C74.2155 71.7581 74.4134 71.7471 74.8352 71.7034C75.2569 71.6597 75.7878 71.0111 76.0005 70.6922C76.1115 70.4955 76.6572 69.8633 76.9162 69.5717C77.2935 68.7409 76.7589 68.0595 76.4445 67.8227L75.4178 67.0848C75.1071 66.9536 73.1797 67.1941 72.2548 67.3307C71.5001 67.7461 71.3669 68.5059 71.3946 68.8338L62.932 76.404L53.859 76.2401H52.0832V76.1307H51.2786V76.2401H43.5374V76.1307H42.705V76.2401H38.4875L38.3766 76.2674L31.8284 76.322L30.996 76.404L18.8432 68.3146L17.2894 67.3034L16.7345 66.7842L14.9587 66.6202L15.2362 65.0351C15.3379 65.026 15.5858 64.9968 15.7633 64.9531C15.9409 64.9094 15.9668 64.5341 15.9576 64.3519L16.4015 64.1606C16.4015 64.1241 16.4514 63.8217 16.6512 62.9034C16.851 61.9852 16.1425 61.4641 15.7633 61.3183C15.7633 61.2454 15.7744 61.0888 15.8188 61.045C15.8743 60.9904 16.4015 61.1817 16.5957 61.1543C16.7899 61.127 16.7899 60.1978 16.7899 60.0612C16.7899 59.9519 16.2905 59.9428 16.0408 59.9519L16.0963 59.5693C16.309 59.6148 16.7677 59.7004 16.9009 59.6786C17.0341 59.6567 17.0859 58.8496 17.0952 58.4488L16.4015 58.3941V57.9295L16.0963 57.8748L23.671 19.696V19.0127C25.1582 18.2475 24.9381 17.4732 24.6421 17.1817C25.4856 16.7663 24.8456 16.0976 24.4202 15.8152L24.7531 14.3121L25.0583 14.0935L25.5855 11.7158L25.6688 11.4972L25.9185 10.5134C26.5622 10.2291 26.5196 9.53862 26.4179 9.22889L26.5011 9.1469L26.7231 8.24504L26.5011 7.75311H26.2514V7.61647L25.5855 7.47998V7.61647H25.419C25.4468 7.61647 25.4468 7.61647 25.419 7.47998Z" fill="#FCDC75"/>
</svg>
