<svg width="85" height="93" viewBox="0 0 85 93" fill="none" xmlns="http://www.w3.org/2000/svg">
<path id="Vector 351" d="M59.581 7.47998C59.8922 5.95058 60.6261 5.55783 61.0515 5.56694L61.5787 4.5012C61.2901 3.45176 61.7729 2.93423 62.0504 2.80665L62.855 1.13971C62.966 0.418222 63.5672 0.110219 63.8539 0.0464033C64.2331 -0.0538038 65.1246 -0.0574476 65.6574 0.729633C66.1901 1.51671 65.6574 2.35116 65.3244 2.67001L65.6019 2.80665V3.05261H65.9626L66.1845 2.91597L66.24 2.53336C66.351 2.26007 68.0436 1.33075 68.321 1.2761C68.5985 1.22144 68.9869 1.30343 69.0424 1.76802C69.0868 2.1397 68.4505 2.26906 68.1268 2.28728C67.4831 2.44032 66.9892 2.82475 66.8227 2.99783L67.0169 3.92703L66.6562 4.44628H66.4343L66.2955 4.39162H65.7406L65.4077 4.80156H65.2134L65.2412 5.75808C65.6407 5.67063 65.8331 5.81274 65.8793 5.89473C65.9996 6.10425 66.0625 6.5397 65.3522 6.60529C64.6419 6.67088 64.6123 6.74193 64.6863 6.76926C65.0636 7.8187 65.2134 9.4293 65.2134 10.1034C67.2112 13.055 64.973 15.2504 63.6041 15.9792L71.7338 57.3009L72.0945 57.3283L72.2887 57.8475L72.8437 57.7655C73.0212 57.9404 73.0656 58.4032 73.0656 58.6127L72.5384 58.7221V58.8587H72.4275L72.6217 59.2686H73.1211C73.3875 59.4435 73.3801 59.9245 73.3431 60.1432H72.7882V60.4438L72.9269 61.2363C73.6372 61.0614 74.0922 61.3092 74.231 61.455L74.4529 61.9196L74.5084 61.5916L74.9801 61.455C75.2021 61.1489 75.646 61.127 75.8403 61.1543C76.0067 61.209 76.4396 61.362 76.8391 61.537C77.3386 61.7556 77.4495 62.0016 77.4495 62.1382C77.7603 63.3844 76.5062 63.4227 75.8403 63.286L74.8969 63.45L74.7027 63.286C74.6472 63.1585 74.5584 62.9909 74.6472 63.3407C74.736 63.6905 74.5547 64.033 74.4529 64.1606L73.5373 64.3519C73.7149 65.2701 73.5558 65.7548 73.4541 65.8823C73.4263 65.9552 73.4041 66.0845 73.5373 66.0189C73.6705 65.9534 74.2032 65.9916 74.4529 66.0189C74.6842 67.1486 75.1466 69.446 75.1466 69.5991C75.1466 69.7521 74.8136 69.8815 74.6472 69.927L76.6449 69.5991C80.0188 70.6266 81.1398 71.2297 81.2785 71.4028C81.63 71.8583 82.3495 72.7966 82.4161 72.9059C82.4994 73.0425 82.4716 73.2065 82.3329 73.2065C81.3562 72.7037 78.7814 72.5779 77.616 72.5779C78.4817 72.884 79.7155 73.6165 80.2242 73.9444C83.0876 75.7591 84.3954 78.727 84.6914 79.9842C85.163 81.4873 85.446 85.3735 82.8046 88.8935C80.1632 92.4135 75.7848 93.002 73.9258 92.8562C72.2888 92.8107 68.3599 91.7794 65.7406 88.0189C63.1214 84.2584 64.0019 79.9477 64.7695 78.2624C65.724 75.8137 67.9973 74.0355 69.0147 73.4525C68.7483 73.365 67.9788 72.9606 67.6274 72.7693L56.6953 80.0388L56.6676 80.2575L56.5566 80.5581C56.7564 80.7548 56.7138 80.9133 56.6676 80.968L56.3346 81.296L52.3947 84.1655H43.7378L43.6823 84.2202H43.4604L43.4049 84.1655H37.7724L37.6614 84.2748H37.5227L37.4117 84.1655H31.8069L31.7514 84.2748H31.5295L31.474 84.1655H26.6461V86.0239C26.6461 86.2207 26.4611 86.2881 26.3687 86.2972H25.786L25.7027 86.3792H25.3698C25.1478 86.3792 25.0183 85.9237 24.9813 85.696H24.8149V85.8599H24.7594V85.9146H24.7039V85.9693H24.0935V85.8053H23.9825V85.696H23.927L23.7882 85.8326L23.594 85.6686L23.483 85.8326L23.3166 85.6686L23.2056 85.8326L23.0668 85.6413L22.8726 85.8599L22.7061 85.6413L22.5952 85.8326L22.4842 85.6413H22.4287L22.3177 85.8326L22.2067 85.6413L22.068 85.8326L21.9292 86.1332H20.7916V85.9693H20.4309C19.9593 87.4997 18.4332 90.0413 15.5476 91.7357C12.662 93.4301 8.69426 93.4575 5.14274 91.5991C1.59122 89.7407 0.42588 85.9146 0.176163 84.6848C-0.073555 83.455 -0.57299 79.3009 2.97853 75.5842C5.81975 72.6107 9.69313 72.1042 11.2747 72.2227L10.8307 71.7581C10.7845 71.7581 10.5866 71.7471 10.1648 71.7034C9.74307 71.6597 9.2122 71.0111 8.99948 70.6922C8.8885 70.4955 8.34281 69.8633 8.08385 69.5717C7.7065 68.7409 8.24108 68.0595 8.55554 67.8227L9.58215 67.0848C9.89291 66.9536 11.8203 67.1941 12.7452 67.3307C13.4999 67.7461 13.6331 68.5059 13.6054 68.8338L22.068 76.404L31.141 76.2401H32.9168V76.1307H33.7214V76.2401H41.4626V76.1307H42.295V76.2401H46.5125L46.6234 76.2674L53.1716 76.322L54.004 76.404L66.1568 68.3146L67.7106 67.3034L68.2655 66.7842L70.0413 66.6202L69.7638 65.0351C69.6621 65.026 69.4142 64.9968 69.2367 64.9531C69.0591 64.9094 69.0332 64.5341 69.0424 64.3519L68.5985 64.1606C68.5985 64.1241 68.5486 63.8217 68.3488 62.9034C68.149 61.9852 68.8575 61.4641 69.2367 61.3183C69.2367 61.2454 69.2256 61.0888 69.1812 61.045C69.1257 60.9904 68.5985 61.1817 68.4043 61.1543C68.2101 61.127 68.2101 60.1978 68.2101 60.0612C68.2101 59.9519 68.7095 59.9428 68.9592 59.9519L68.9037 59.5693C68.691 59.6148 68.2323 59.7004 68.0991 59.6786C67.9659 59.6567 67.9141 58.8496 67.9048 58.4488L68.5985 58.3941V57.9295L68.9037 57.8748L61.329 19.696V19.0127C59.8418 18.2475 60.0619 17.4732 60.3579 17.1817C59.5144 16.7663 60.1544 16.0976 60.5798 15.8152L60.2469 14.3121L59.9417 14.0935L59.4145 11.7158L59.3312 11.4972L59.0815 10.5134C58.4378 10.2291 58.4804 9.53862 58.5821 9.22889L58.4989 9.1469L58.2769 8.24504L58.4989 7.75311H58.7486V7.61647L59.4145 7.47998V7.61647H59.581C59.5532 7.61647 59.5532 7.61647 59.581 7.47998Z" fill="white"/>
</svg>
