<svg width="126" height="24" viewBox="0 0 126 24" fill="none" xmlns="http://www.w3.org/2000/svg">
<g id="Vector">
<path d="M25.1284 11.8214C25.1284 5.29816 19.6829 0.00390625 12.9734 0.00390625C6.26381 0.00390625 0.818359 5.29816 0.818359 11.8214C0.818359 17.5411 4.99969 22.3036 10.5424 23.4026V15.3667H8.11137V11.8214H10.5424V8.86705C10.5424 6.58627 12.4507 4.73092 14.7966 4.73092H17.8354V8.27618H15.4044C14.7359 8.27618 14.1889 8.80797 14.1889 9.45793V11.8214H17.8354V15.3667H14.1889V23.5799C20.3272 22.989 25.1284 17.9547 25.1284 11.8214Z" fill="#303030"/>
<path d="M47.3796 8.86847C46.7834 8.86847 46.2006 9.03993 45.7049 9.36116C45.2092 9.68239 44.8228 10.139 44.5946 10.6731C44.3665 11.2073 44.3068 11.7951 44.4231 12.3622C44.5394 12.9293 44.8265 13.4502 45.2481 13.8591C45.6697 14.2679 46.2068 14.5463 46.7915 14.6591C47.3763 14.7719 47.9824 14.714 48.5332 14.4928C49.084 14.2715 49.5548 13.8968 49.886 13.4161C50.2173 12.9353 50.3941 12.3701 50.3941 11.7919C50.3941 11.408 50.3161 11.0278 50.1646 10.6731C50.0131 10.3185 49.7911 9.99619 49.5112 9.72472C49.2312 9.45326 48.8989 9.23792 48.5332 9.091C48.1675 8.94409 47.7755 8.86847 47.3796 8.86847ZM59.4496 5.98041C59.4432 5.0701 59.2703 4.1681 58.939 3.31633C58.6951 2.69305 58.3176 2.12703 57.8315 1.65562C57.3454 1.18421 56.7618 0.818123 56.1191 0.581518C55.2408 0.260252 54.3107 0.0926237 53.3721 0.0864221C51.8041 0.00390617 51.3422 0.00390625 47.3796 0.00390625C43.4171 0.00390625 42.9552 0.00390617 41.3872 0.0864221C40.4485 0.0926237 39.5185 0.260252 38.6402 0.581518C37.9975 0.818123 37.4138 1.18421 36.9278 1.65562C36.4417 2.12703 36.0642 2.69305 35.8202 3.31633C35.4889 4.1681 35.3161 5.0701 35.3097 5.98041C35.2246 7.50107 35.2246 7.94901 35.2246 11.7919C35.2246 15.6348 35.2246 16.0827 35.3097 17.6034C35.3228 18.5169 35.4954 19.4217 35.8202 20.2792C36.0631 20.8997 36.4403 21.4624 36.9263 21.9296C37.4103 22.4038 37.9952 22.7699 38.6402 23.0023C39.5185 23.3235 40.4485 23.4912 41.3872 23.4974C42.9552 23.5799 43.4171 23.5799 47.3796 23.5799C51.3422 23.5799 51.8041 23.5799 53.3721 23.4974C54.3107 23.4912 55.2408 23.3235 56.1191 23.0023C56.764 22.7699 57.3489 22.4038 57.8329 21.9296C58.319 21.4624 58.6962 20.8997 58.939 20.2792C59.27 19.4233 59.4428 18.5175 59.4496 17.6034C59.5346 16.0827 59.5346 15.6348 59.5346 11.7919C59.5346 7.94901 59.5346 7.50107 59.4496 5.98041ZM56.3622 15.4108C56.3232 16.1382 56.1631 16.8548 55.8881 17.5326C55.6522 18.0981 55.3014 18.6118 54.8566 19.0431C54.4118 19.4744 53.8822 19.8146 53.2991 20.0435C52.5935 20.2953 51.8506 20.4346 51.0991 20.4561H43.6602C42.9087 20.4346 42.1657 20.2953 41.4601 20.0435C40.8574 19.8263 40.313 19.4797 39.8678 19.0297C39.4274 18.6068 39.0873 18.096 38.8711 17.5326C38.6105 16.8491 38.4707 16.1277 38.4578 15.399V8.18477C38.4707 7.45606 38.6105 6.73471 38.8711 6.05114C39.0951 5.46658 39.4525 4.93868 39.9164 4.50692C40.3544 4.08211 40.8807 3.7526 41.4601 3.5403C42.1657 3.28852 42.9087 3.14919 43.6602 3.12772H51.0991C51.8506 3.14919 52.5935 3.28852 53.2991 3.5403C53.9019 3.75753 54.4462 4.10409 54.8914 4.55407C55.3318 4.97696 55.672 5.48783 55.8881 6.05114C56.1478 6.73542 56.2914 7.45595 56.3136 8.18477V11.7919C56.3136 14.2202 56.3986 14.4678 56.3622 15.399V15.4108ZM54.4174 6.64054C54.2727 6.25977 54.0445 5.91398 53.7486 5.62703C53.4527 5.34007 53.0962 5.11879 52.7035 4.97844C52.1644 4.79721 51.5966 4.70942 51.0261 4.7191H43.7331C43.1597 4.72454 42.5919 4.8283 42.0557 5.02559C41.6691 5.15957 41.3163 5.37182 41.0208 5.64823C40.7253 5.92464 40.4939 6.25889 40.3419 6.62875C40.1654 7.15375 40.0791 7.70334 40.0866 8.2555V15.3283C40.0987 15.8837 40.2055 16.4334 40.4026 16.955C40.5474 17.3358 40.7755 17.6816 41.0714 17.9685C41.3673 18.2555 41.7239 18.4768 42.1165 18.6171C42.6351 18.8021 43.1809 18.9056 43.7331 18.9236H51.0261C51.5995 18.9182 52.1674 18.8144 52.7035 18.6171C53.0962 18.4768 53.4527 18.2555 53.7486 17.9685C54.0445 17.6816 54.2727 17.3358 54.4174 16.955C54.6208 16.4351 54.7278 15.8844 54.7334 15.3283V8.2555C54.7338 7.69886 54.6266 7.1471 54.4174 6.62875V6.64054ZM47.3796 16.2949C46.7704 16.2949 46.1672 16.1783 45.6046 15.9519C45.0419 15.7255 44.5309 15.3936 44.1007 14.9753C43.6705 14.557 43.3296 14.0605 43.0976 13.5142C42.8656 12.968 42.747 12.3827 42.7486 11.7919C42.7486 10.9008 43.0212 10.0297 43.5319 9.28893C44.0427 8.54816 44.7686 7.97101 45.6177 7.63054C46.4669 7.29006 47.4011 7.20158 48.3021 7.37629C49.2031 7.55099 50.0305 7.98104 50.6793 8.61197C51.3282 9.24291 51.7695 10.0464 51.9473 10.9206C52.125 11.7949 52.0314 12.7007 51.6781 13.5233C51.3248 14.3459 50.7277 15.0484 49.9626 15.5417C49.1974 16.0351 48.2985 16.2972 47.3796 16.2949ZM52.2416 8.17298C51.9729 8.1454 51.7243 8.02235 51.5436 7.82756C51.3628 7.63276 51.2628 7.37999 51.2628 7.11796C51.2628 6.85592 51.3628 6.60315 51.5436 6.40835C51.7243 6.21356 51.9729 6.09051 52.2416 6.06293C52.5103 6.09051 52.759 6.21356 52.9397 6.40835C53.1204 6.60315 53.2204 6.85592 53.2204 7.11796C53.2204 7.37999 53.1204 7.63276 52.9397 7.82756C52.759 8.02235 52.5103 8.1454 52.2416 8.17298Z" fill="#303030"/>
<path d="M84.0987 10.1664L93.1486 0.00390625H91.0038L83.1461 8.82766L76.8698 0.00390625H69.6309L79.1217 13.3472L69.6309 24.0039H71.7756L80.074 14.6857L86.7019 24.0039H93.9409L84.0981 10.1664H84.0987ZM81.1613 13.4645L72.5483 1.56353H75.8425L91.0048 22.5152H87.711L81.1613 13.4651V13.4645Z" fill="#303030"/>
<path d="M120.813 3.69748C119.891 2.67535 119.383 1.36271 119.383 0.00390625H115.216V16.2451C115.184 17.124 114.802 17.9565 114.151 18.5673C113.499 19.1781 112.629 19.5194 111.724 19.5196C109.809 19.5196 108.218 18.0002 108.218 16.1142C108.218 13.8613 110.456 12.1717 112.762 12.8659V8.72702C108.11 8.12452 104.037 11.6347 104.037 16.1142C104.037 20.4757 107.759 23.5799 111.71 23.5799C115.945 23.5799 119.383 20.2399 119.383 16.1142V7.87566C121.073 9.05426 123.102 9.68662 125.182 9.68315V5.63594C125.182 5.63594 122.647 5.75382 120.813 3.69748Z" fill="#303030"/>
</g>
</svg>
