<svg width="494" height="340" viewBox="0 0 494 340" fill="none" xmlns="http://www.w3.org/2000/svg">
<g clip-path="url(#clip0_1_1053)">
<path d="M489.333 128.693H489.199L412.651 161.266L307.918 205.833C307.508 206.005 307.069 206.094 306.625 206.097C306.181 206.099 305.741 206.014 305.33 205.847L197.276 161.173L118.848 128.747L118.728 128.693H118.594C117.357 128.695 116.17 129.185 115.295 130.057C114.42 130.929 113.928 132.112 113.927 133.345V335.348C113.928 336.581 114.42 337.764 115.295 338.636C116.17 339.508 117.357 339.998 118.594 339.999H489.333C490.57 339.998 491.757 339.508 492.632 338.636C493.507 337.764 493.999 336.581 494 335.348V133.345C493.999 132.112 493.507 130.929 492.632 130.057C491.757 129.185 490.57 128.695 489.333 128.693Z" fill="white"/>
<path d="M490.665 130.023C490.529 130.023 490.396 129.981 490.284 129.904L305.876 1.92175C305.315 1.53409 304.648 1.32691 303.965 1.32807C303.283 1.32923 302.616 1.53867 302.057 1.92823L118.977 129.902C118.905 129.953 118.824 129.988 118.739 130.007C118.653 130.026 118.565 130.028 118.478 130.013C118.392 129.998 118.31 129.966 118.236 129.919C118.162 129.872 118.098 129.811 118.048 129.74C117.997 129.669 117.962 129.588 117.943 129.503C117.924 129.418 117.922 129.329 117.937 129.244C117.952 129.158 117.984 129.075 118.031 129.002C118.078 128.928 118.139 128.864 118.211 128.814L301.291 0.840011C302.075 0.294702 303.007 0.00157192 303.963 6.30435e-06C304.919 -0.00155931 305.853 0.288512 306.638 0.831251L491.047 128.813C491.163 128.894 491.251 129.01 491.297 129.144C491.342 129.278 491.344 129.423 491.302 129.558C491.259 129.693 491.174 129.81 491.06 129.894C490.945 129.978 490.807 130.023 490.665 130.023Z" fill="#3F3D56"/>
<path d="M129.439 134.559L304.147 5.52734L480.181 143.74L313.149 242.416L222.465 221.817L129.439 134.559Z" fill="#E6E6E6"/>
<path d="M230.119 303.365H143.809C143.279 303.366 142.754 303.262 142.264 303.061C141.774 302.859 141.329 302.563 140.954 302.19C140.579 301.817 140.282 301.373 140.079 300.885C139.876 300.398 139.771 299.875 139.771 299.347C139.771 298.818 139.876 298.295 140.079 297.808C140.282 297.32 140.579 296.876 140.954 296.503C141.329 296.13 141.774 295.834 142.264 295.633C142.754 295.431 143.279 295.327 143.809 295.328H230.119C230.649 295.327 231.174 295.431 231.664 295.633C232.154 295.834 232.599 296.13 232.974 296.503C233.349 296.876 233.646 297.32 233.849 297.808C234.052 298.295 234.157 298.818 234.157 299.347C234.157 299.875 234.052 300.398 233.849 300.885C233.646 301.373 233.349 301.817 232.974 302.19C232.599 302.563 232.154 302.859 231.664 303.061C231.174 303.262 230.649 303.366 230.119 303.365Z" fill="#1D4ED8"/>
<path d="M174.775 286.088H143.809C143.279 286.088 142.754 285.985 142.264 285.783C141.774 285.582 141.329 285.286 140.954 284.912C140.579 284.539 140.282 284.096 140.079 283.608C139.876 283.12 139.771 282.597 139.771 282.069C139.771 281.541 139.876 281.018 140.079 280.53C140.282 280.042 140.579 279.599 140.954 279.226C141.329 278.853 141.774 278.557 142.264 278.355C142.754 278.154 143.279 278.05 143.809 278.051H174.775C175.305 278.05 175.83 278.154 176.32 278.355C176.81 278.557 177.255 278.853 177.63 279.226C178.005 279.599 178.302 280.042 178.505 280.53C178.708 281.018 178.813 281.541 178.813 282.069C178.813 282.597 178.708 283.12 178.505 283.608C178.302 284.096 178.005 284.539 177.63 284.912C177.255 285.286 176.81 285.582 176.32 285.783C175.83 285.985 175.305 286.088 174.775 286.088Z" fill="#1D4ED8"/>
<path d="M306.604 206.428C305.948 206.429 305.298 206.302 304.69 206.055L196.942 161.502V22.044C196.944 20.8108 197.436 19.6285 198.311 18.7565C199.186 17.8845 200.372 17.394 201.61 17.3926H408.317C409.554 17.394 410.74 17.8845 411.615 18.7565C412.49 19.6285 412.983 20.8108 412.984 22.044V161.599L412.782 161.686L308.575 206.033C307.951 206.294 307.28 206.429 306.604 206.428Z" fill="white"/>
<path d="M306.604 206.76C305.904 206.761 305.211 206.626 304.564 206.363L196.609 161.724V22.0442C196.611 20.7229 197.138 19.4562 198.076 18.5219C199.013 17.5876 200.284 17.062 201.61 17.0605H408.317C409.643 17.062 410.914 17.5876 411.852 18.5219C412.789 19.4562 413.316 20.7229 413.318 22.0442V161.819L308.706 206.339C308.041 206.618 307.326 206.761 306.604 206.76ZM197.943 160.836L305.072 205.134C306.072 205.538 307.191 205.531 308.185 205.115L411.984 160.942V22.0442C411.983 21.0753 411.596 20.1463 410.909 19.4612C410.221 18.7761 409.289 18.3907 408.317 18.3895H201.61C200.638 18.3907 199.706 18.7761 199.018 19.4612C198.331 20.1463 197.944 21.0753 197.943 22.0442V160.836Z" fill="#3F3D56"/>
<path d="M489.333 128.693H489.199L412.651 161.266L307.918 205.833C307.508 206.005 307.069 206.094 306.625 206.097C306.181 206.099 305.741 206.014 305.33 205.847L197.276 161.173L118.848 128.747L118.728 128.693H118.594C117.357 128.695 116.17 129.185 115.295 130.057C114.42 130.929 113.928 132.112 113.927 133.345V335.348C113.928 336.581 114.42 337.764 115.295 338.636C116.17 339.508 117.357 339.998 118.594 339.999H489.333C490.57 339.998 491.757 339.508 492.632 338.636C493.507 337.764 493.999 336.581 494 335.348V133.345C493.999 132.112 493.507 130.929 492.632 130.057C491.757 129.185 490.57 128.695 489.333 128.693ZM492.667 335.348C492.666 336.229 492.315 337.074 491.69 337.697C491.065 338.32 490.217 338.67 489.333 338.67H118.594C117.71 338.67 116.862 338.32 116.237 337.697C115.612 337.074 115.261 336.229 115.26 335.348V133.345C115.262 132.486 115.596 131.66 116.194 131.041C116.791 130.422 117.606 130.057 118.468 130.022L197.276 162.609L304.817 207.076C305.981 207.548 307.286 207.541 308.445 207.056L412.651 162.708L489.466 130.022C490.326 130.059 491.139 130.425 491.735 131.044C492.331 131.663 492.665 132.487 492.667 133.345V335.348Z" fill="#3F3D56"/>
<path d="M289.829 69.5224H216.482C215.067 69.5224 213.71 68.9623 212.71 67.9654C211.709 66.9685 211.147 65.6164 211.147 64.2065C211.147 62.7966 211.709 61.4445 212.71 60.4476C213.71 59.4507 215.067 58.8906 216.482 58.8906H289.829C291.244 58.8906 292.601 59.4507 293.601 60.4476C294.602 61.4445 295.164 62.7966 295.164 64.2065C295.164 65.6164 294.602 66.9685 293.601 67.9654C292.601 68.9623 291.244 69.5224 289.829 69.5224Z" fill="#1D4ED8"/>
<path d="M251.822 46.9306H216.482C215.067 46.9306 213.71 46.3705 212.71 45.3736C211.709 44.3767 211.147 43.0246 211.147 41.6147C211.147 40.2048 211.709 38.8527 212.71 37.8558C213.71 36.8589 215.067 36.2988 216.482 36.2988H251.822C253.237 36.2988 254.594 36.8589 255.594 37.8558C256.594 38.8527 257.156 40.2048 257.156 41.6147C257.156 43.0246 256.594 44.3767 255.594 45.3736C254.594 46.3705 253.237 46.9306 251.822 46.9306Z" fill="#1D4ED8"/>
<path d="M359.822 122.681H247.8C246.385 122.681 245.029 122.121 244.028 121.124C243.028 120.127 242.466 118.775 242.466 117.365C242.466 115.955 243.028 114.603 244.028 113.606C245.029 112.609 246.385 112.049 247.8 112.049H359.822C361.237 112.049 362.593 112.609 363.594 113.606C364.594 114.603 365.156 115.955 365.156 117.365C365.156 118.775 364.594 120.127 363.594 121.124C362.593 122.121 361.237 122.681 359.822 122.681Z" fill="#CCCCCC"/>
<path d="M359.822 147.267H247.8C246.385 147.267 245.029 146.706 244.028 145.71C243.028 144.713 242.466 143.36 242.466 141.951C242.466 140.541 243.028 139.189 244.028 138.192C245.029 137.195 246.385 136.635 247.8 136.635H359.822C361.237 136.635 362.593 137.195 363.594 138.192C364.594 139.189 365.156 140.541 365.156 141.951C365.156 143.36 364.594 144.713 363.594 145.71C362.593 146.706 361.237 147.267 359.822 147.267Z" fill="#CCCCCC"/>
<path d="M27.3035 153.482C26.6105 153.481 25.9391 153.241 25.4031 152.804C24.8671 152.366 24.4994 151.757 24.3622 151.08L21.9359 139.027C20.6492 132.633 21.9637 125.992 25.5904 120.565C29.217 115.137 34.8586 111.368 41.2742 110.086C47.6897 108.803 54.3537 110.113 59.8 113.727C65.2464 117.341 69.029 122.964 70.3157 129.357L72.7413 141.41C72.897 142.187 72.7368 142.995 72.296 143.654C71.8552 144.314 71.1697 144.773 70.39 144.93L27.8948 153.424C27.7001 153.463 27.5021 153.482 27.3035 153.482Z" fill="#2F2E41"/>
<path d="M102.746 332.946L95.1228 332.946L91.498 303.645L102.748 303.645L102.746 332.946Z" fill="#A0616A"/>
<path d="M89.6773 330.775H104.379V340H80.4209C80.4209 337.553 81.3961 335.207 83.132 333.477C84.8679 331.747 87.2223 330.775 89.6773 330.775Z" fill="#2F2E41"/>
<path d="M23.3172 332.869L16.2979 329.906L24.4248 301.516L34.7841 305.889L23.3172 332.869Z" fill="#A0616A"/>
<path d="M12.1338 325.793L25.6711 331.507L22.061 340L0.000341392 330.689C0.474416 329.574 1.16431 328.562 2.03064 327.713C2.89698 326.863 3.92278 326.191 5.04948 325.737C6.17618 325.282 7.38171 325.053 8.59725 325.063C9.81278 325.072 11.0145 325.32 12.1338 325.793Z" fill="#2F2E41"/>
<path d="M46.8245 150.461C55.8693 150.461 63.2016 143.154 63.2016 134.141C63.2016 125.127 55.8693 117.82 46.8245 117.82C37.7796 117.82 30.4473 125.127 30.4473 134.141C30.4473 143.154 37.7796 150.461 46.8245 150.461Z" fill="#A0616A"/>
<path d="M47.5999 208.386L47.4319 207.842C42.9693 193.386 38.3565 178.445 33.7373 164.235L33.6123 163.851L33.8962 163.564C41.0662 156.295 54.4983 153.396 65.1413 156.822C75.8528 160.268 83.2342 169.933 82.3115 179.304C81.8206 184.934 83.3384 190.556 86.5977 195.181L87.025 195.799L86.3569 196.146C74.3914 202.283 61.4845 206.391 48.1653 208.304L47.5999 208.386Z" fill="#3F3D56"/>
<path d="M27.8487 327.605C27.2647 327.604 26.6912 327.45 26.1861 327.158L17.3395 322.066C16.6138 321.654 16.0711 320.983 15.8201 320.189C15.5692 319.395 15.6283 318.536 15.9857 317.783L35.6433 271.301L50.6667 203.507L78.0459 193.586L78.2948 193.7C107.648 207.137 105.379 303.45 104.626 322.621C104.592 323.427 104.265 324.194 103.706 324.778C103.147 325.362 102.394 325.723 101.587 325.794L93.3537 326.866C92.5166 326.94 91.6823 326.698 91.0148 326.19C90.3473 325.681 89.895 324.942 89.7468 324.118L72.9389 249.261C72.922 249.118 72.8595 248.985 72.7607 248.882C72.6618 248.778 72.532 248.708 72.3905 248.684C72.2548 248.658 72.1144 248.675 71.9894 248.734C71.8645 248.793 71.7616 248.89 71.6955 249.011L30.7641 325.901C30.5485 326.287 30.2575 326.627 29.9082 326.899C29.559 327.171 29.1586 327.371 28.7307 327.486C28.4432 327.564 28.1466 327.604 27.8487 327.605Z" fill="#2F2E41"/>
<path d="M37.6812 259.29C38.1982 258.539 38.5436 257.684 38.6931 256.785C38.8426 255.887 38.7926 254.966 38.5465 254.089C38.3005 253.212 37.8644 252.399 37.269 251.708C36.6736 251.017 35.9334 250.464 35.1005 250.089L35.5482 235.857L26.936 233.477L26.587 253.583C26.0471 255.019 26.0547 256.603 26.6082 258.034C27.1618 259.465 28.2228 260.644 29.5903 261.347C30.9578 262.051 32.5368 262.23 34.028 261.851C35.5192 261.472 36.819 260.561 37.6812 259.29Z" fill="#A0616A"/>
<path d="M26.7142 244.247L26.2088 244.245C25.3757 244.239 24.5753 243.921 23.9669 243.354C23.3586 242.787 22.987 242.012 22.9261 241.184C22.1001 230.584 19.5634 194.48 21.6063 174.905C21.877 173.078 22.5128 171.324 23.4762 169.747C24.4396 168.17 25.7108 166.801 27.2147 165.722C28.7185 164.644 30.4244 163.877 32.2311 163.467C34.0379 163.057 35.9088 163.013 37.733 163.337L38.2588 163.453L38.2549 163.99C38.0677 189.744 38.0797 215.348 38.0914 240.109C38.0933 240.865 37.8362 241.599 37.3628 242.19C36.8893 242.781 36.2277 243.193 35.4874 243.358C32.6013 243.953 29.6615 244.251 26.7142 244.247Z" fill="#1D4ED8"/>
<path d="M46.3201 275.136C44.1155 275.126 41.9901 274.315 40.3424 272.856C38.6946 271.396 37.6377 269.388 37.3698 267.207L38.0951 207.768L26.2401 177.887C25.7413 173.961 26.5886 169.983 28.6445 166.597C30.7004 163.212 33.8442 160.619 37.5654 159.239L40.7346 158.054C41.3335 157.83 41.9708 157.727 42.61 157.749C43.2492 157.771 43.8776 157.919 44.4593 158.184C45.041 158.449 45.5645 158.826 45.9998 159.293C46.435 159.76 46.7734 160.308 46.9956 160.906L59.2198 193.796L59.2229 193.844C60.0706 206.934 63.8962 272.086 56.2686 274.03C53.0365 274.784 49.7263 275.155 46.4068 275.135L46.3201 275.136Z" fill="#1D4ED8"/>
<path d="M116.745 236.85C115.898 236.507 115.136 235.984 114.514 235.317C113.892 234.649 113.424 233.854 113.144 232.987C112.864 232.12 112.777 231.203 112.891 230.299C113.005 229.395 113.317 228.527 113.804 227.756L105.553 216.132L111.418 209.412L122.839 225.991C124.085 226.892 124.955 228.217 125.285 229.715C125.616 231.213 125.383 232.78 124.632 234.118C123.881 235.457 122.663 236.474 121.209 236.977C119.756 237.481 118.167 237.436 116.745 236.85Z" fill="#A0616A"/>
<path d="M108.506 221.912C108.075 221.899 107.653 221.784 107.276 221.575C106.9 221.366 106.579 221.069 106.341 220.711L106.298 220.646C92.645 200.053 78.5276 178.76 64.2195 157.533L64.0654 157.304L64.2623 157.11C65.5173 155.943 66.9962 155.041 68.6101 154.457C70.224 153.874 71.9395 153.622 73.6536 153.717C75.4183 153.749 77.1563 154.151 78.7542 154.898C80.3521 155.645 81.7739 156.719 82.9268 158.051C95.4302 173.212 113.275 204.678 118.446 213.961C118.773 214.537 118.869 215.215 118.717 215.859C118.564 216.503 118.174 217.067 117.623 217.437C115.084 219.16 112.364 220.602 109.512 221.737C109.192 221.863 108.849 221.922 108.506 221.912Z" fill="#1D4ED8"/>
<path d="M103.922 261.888C95.7443 261.893 66.4856 205.75 60.7034 194.496L60.6533 194.359L54.2569 159.92C54.1405 159.294 54.1494 158.65 54.2832 158.027C54.417 157.404 54.6729 156.813 55.0364 156.289C55.3999 155.764 55.8637 155.317 56.4012 154.971C56.9388 154.626 57.5395 154.39 58.1688 154.276L61.5002 153.676C65.4057 152.963 69.4386 153.586 72.944 155.444C76.4495 157.303 79.2216 160.287 80.8104 163.914L89.1685 198.924L117.116 246.243C118.034 248.27 118.169 250.564 117.495 252.684C116.821 254.804 115.386 256.602 113.464 257.733C110.623 259.445 107.589 260.816 104.425 261.818C104.262 261.865 104.092 261.888 103.922 261.888Z" fill="#1D4ED8"/>
<path d="M59.5445 134.283H26.5381V130.296C26.5431 125.891 28.3009 121.669 31.4261 118.555C34.5512 115.44 38.7884 113.689 43.208 113.684H45.8752C50.2948 113.689 54.5319 115.44 57.6571 118.555C60.7822 121.669 62.5401 125.891 62.545 130.296V131.292C62.5442 132.085 62.2278 132.845 61.6652 133.406C61.1027 133.966 60.34 134.282 59.5445 134.283Z" fill="#2F2E41"/>
</g>
<defs>
<clipPath id="clip0_1_1053">
<rect width="494" height="340" fill="white"/>
</clipPath>
</defs>
</svg>
